<svg id="Layer_1" data-name="Layer 1" xmlns="http://www.w3.org/2000/svg" xmlns:xlink="http://www.w3.org/1999/xlink" viewBox="0 0 800 600"><defs><style>.cls-1{fill:url(#linear-gradient);}.cls-2{mask:url(#mask);filter:url(#luminosity-noclip-2);}.cls-3{mix-blend-mode:multiply;fill:url(#linear-gradient-2);}.cls-4{fill:url(#linear-gradient-3);}.cls-5{fill:url(#linear-gradient-4);}.cls-6{mask:url(#mask-2);}.cls-7{fill:#fab733;}.cls-8{fill:#660acb;}.cls-24,.cls-25,.cls-9{fill:#fff;}.cls-10{fill:#36068a;}.cls-11{mask:url(#mask-3);}.cls-12{fill:url(#linear-gradient-5);}.cls-13{mask:url(#mask-4);}.cls-14{opacity:0.51;fill:url(#linear-gradient-6);}.cls-15{mask:url(#mask-5);}.cls-16,.cls-22{fill:#fba62f;}.cls-17{mask:url(#mask-6);}.cls-18{fill:url(#linear-gradient-7);}.cls-19{fill:url(#linear-gradient-8);}.cls-20{fill:#fbc63d;}.cls-21{fill:#8a3f15;}.cls-22{font-size:14.43px;font-family:Palanquin-Bold, Palanquin;font-weight:700;}.cls-23{fill:url(#linear-gradient-9);}.cls-24{opacity:0.5;}.cls-25{font-size:77.3px;font-family:SourceHanSansCN-Normal-GBpc-EUC-H, Source Han Sans CN;}.cls-26{fill:url(#linear-gradient-10);}.cls-27{fill:url(#linear-gradient-11);}.cls-28{fill:url(#linear-gradient-12);}.cls-29{fill:url(#linear-gradient-13);}.cls-30{fill:url(#linear-gradient-15);}.cls-31{fill:#a24f18;}.cls-32{fill:#dbe6f4;}.cls-33{fill:#5506ac;}.cls-34{fill:url(#linear-gradient-16);}.cls-35{filter:url(#luminosity-noclip-3);}.cls-36{filter:url(#luminosity-noclip);}</style><linearGradient id="linear-gradient" x1="9507.11" y1="865.84" x2="9346.58" y2="497.16" gradientTransform="translate(-9118.31)" gradientUnits="userSpaceOnUse"><stop offset="0.72"/><stop offset="0.79" stop-color="#030303"/><stop offset="0.83" stop-color="#0c0c0d"/><stop offset="0.88" stop-color="#1c1d1d"/><stop offset="0.91" stop-color="#333334"/><stop offset="0.95" stop-color="#505052"/><stop offset="0.99" stop-color="#737476"/><stop offset="1" stop-color="#808184"/></linearGradient><filter id="luminosity-noclip" x="140.14" y="-13200.66" width="278.25" height="32766" filterUnits="userSpaceOnUse" color-interpolation-filters="sRGB"><feFlood flood-color="#fff" result="bg"/><feBlend in="SourceGraphic" in2="bg"/></filter><mask id="mask" x="140.14" y="-13200.66" width="278.25" height="32766" maskUnits="userSpaceOnUse"><g class="cls-36"/></mask><linearGradient id="linear-gradient-2" x1="299.76" y1="559.34" x2="153.16" y2="305.29" gradientUnits="userSpaceOnUse"><stop offset="0" stop-color="#fff"/><stop offset="1"/></linearGradient><linearGradient id="linear-gradient-3" x1="9663.92" y1="824.45" x2="9598.09" y2="411.44" gradientTransform="translate(-9118.31)" gradientUnits="userSpaceOnUse"><stop offset="0.66"/><stop offset="0.7" stop-color="#070707"/><stop offset="0.75" stop-color="#1a1a1b"/><stop offset="0.81" stop-color="#393a3b"/><stop offset="0.88" stop-color="#646568"/><stop offset="0.91" stop-color="#808184"/></linearGradient><linearGradient id="linear-gradient-4" x1="9589.7" y1="823.27" x2="9521.6" y2="519.72" gradientTransform="translate(-9118.31)" gradientUnits="userSpaceOnUse"><stop offset="0.71"/><stop offset="0.75" stop-color="#030303"/><stop offset="0.79" stop-color="#0d0e0e"/><stop offset="0.83" stop-color="#1f1f1f"/><stop offset="0.86" stop-color="#373738"/><stop offset="0.89" stop-color="#565658"/><stop offset="0.92" stop-color="#7b7c7f"/><stop offset="0.93" stop-color="#808184"/></linearGradient><mask id="mask-2" x="151.9" y="390.38" width="234.84" height="402.11" maskUnits="userSpaceOnUse"><polygon class="cls-1" points="386.74 687.12 151.9 792.49 151.9 522.23 386.74 390.38 386.74 687.12"/></mask><filter id="luminosity-noclip-2" x="140.14" y="390.84" width="278.25" height="265.94" filterUnits="userSpaceOnUse" color-interpolation-filters="sRGB"><feFlood flood-color="#fff" result="bg"/><feBlend in="SourceGraphic" in2="bg"/></filter><mask id="mask-3" x="140.14" y="390.84" width="278.25" height="265.94" maskUnits="userSpaceOnUse"><g class="cls-2"><polygon class="cls-3" points="418.38 390.84 202.41 512.02 140.14 483.81 140.14 656.78 418.38 656.78 418.38 390.84"/></g></mask><linearGradient id="linear-gradient-5" x1="290.94" y1="549.4" x2="198.83" y2="389.78" gradientUnits="userSpaceOnUse"><stop offset="0" stop-color="#4506b1"/><stop offset="1" stop-color="#4506b1"/></linearGradient><mask id="mask-4" x="195.22" y="376.43" width="604.78" height="223.57" maskUnits="userSpaceOnUse"><polygon class="cls-4" points="800 600 195.22 600 195.55 521.21 453.9 376.43 800 446.61 800 600"/></mask><linearGradient id="linear-gradient-6" x1="321.68" y1="236.21" x2="611.69" y2="702.55" gradientUnits="userSpaceOnUse"><stop offset="0" stop-color="#fba62f"/><stop offset="1" stop-color="#fba62f"/></linearGradient><filter id="luminosity-noclip-3" x="210.04" y="-13200.66" width="589.96" height="32766" filterUnits="userSpaceOnUse" color-interpolation-filters="sRGB"><feFlood flood-color="#fff" result="bg"/><feBlend in="SourceGraphic" in2="bg"/></filter><mask id="mask-5" x="210.04" y="-13200.66" width="589.96" height="32766" maskUnits="userSpaceOnUse"><g class="cls-35"/></mask><mask id="mask-6" x="314.71" y="467.98" width="225.96" height="321.03" maskUnits="userSpaceOnUse"><polygon class="cls-5" points="540.68 704.88 314.71 789 314.71 573.23 540.68 467.98 540.68 704.88"/></mask><linearGradient id="linear-gradient-7" x1="419.56" y1="590.71" x2="419.56" y2="504.74" gradientUnits="userSpaceOnUse"><stop offset="0" stop-color="#36068a"/><stop offset="1" stop-color="#36068a"/></linearGradient><linearGradient id="linear-gradient-8" x1="460.99" y1="591.92" x2="460.99" y2="499" xlink:href="#linear-gradient-7"/><linearGradient id="linear-gradient-9" x1="326.17" y1="183.4" x2="287.93" y2="245.93" gradientUnits="userSpaceOnUse"><stop offset="0" stop-color="#a112dc"/><stop offset="0.19" stop-color="#9510d9"/><stop offset="1" stop-color="#660acb"/></linearGradient><linearGradient id="linear-gradient-10" x1="441.66" y1="475.03" x2="476.72" y2="475.03" gradientUnits="userSpaceOnUse"><stop offset="0" stop-color="#fba62f"/><stop offset="0.08" stop-color="#e98e48"/><stop offset="0.22" stop-color="#ca6773"/><stop offset="0.38" stop-color="#b14795"/><stop offset="0.53" stop-color="#9d2eb0"/><stop offset="0.68" stop-color="#8f1cc4"/><stop offset="0.84" stop-color="#8712cf"/><stop offset="1" stop-color="#840ed3"/></linearGradient><linearGradient id="linear-gradient-11" x1="391.93" y1="500.11" x2="445.14" y2="500.11" xlink:href="#linear-gradient-10"/><linearGradient id="linear-gradient-12" x1="401.18" y1="379.89" x2="446.71" y2="381.71" xlink:href="#linear-gradient-10"/><linearGradient id="linear-gradient-13" x1="405.43" y1="273.76" x2="450.95" y2="275.58" xlink:href="#linear-gradient-10"/><linearGradient id="linear-gradient-15" x1="389.87" y1="194.15" x2="443.29" y2="231.18" gradientUnits="userSpaceOnUse"><stop offset="0" stop-color="#fba62f"/><stop offset="0.04" stop-color="#f29840"/><stop offset="0.14" stop-color="#de7669"/><stop offset="0.25" stop-color="#cc598c"/><stop offset="0.37" stop-color="#be41a9"/><stop offset="0.49" stop-color="#b32fbf"/><stop offset="0.63" stop-color="#ab22cf"/><stop offset="0.78" stop-color="#a61ad8"/><stop offset="1" stop-color="#a518db"/></linearGradient><linearGradient id="linear-gradient-16" x1="363.35" y1="232.42" x2="416.77" y2="269.45" xlink:href="#linear-gradient-15"/></defs><title>product-2b-svg</title><g class="cls-6"><path class="cls-7" d="M381.36,439.16l-22-17.08L198.64,518.33c-15.63,9.37-18.2,26.25-18.2,44.47v35.89H382.21Z"/><path class="cls-8" d="M384.06,441.56c0-7.83-9.36-16.84-20-22.39L202.41,512l-15.21-7.66-4.28,2.5a40.76,40.76,0,0,0-20.16,35.23l.13,56.6h21.7l-.11-44.38a37.91,37.91,0,0,1,18.75-32.76L357.83,431a14.13,14.13,0,0,1,21.27,12.16l.26,155.53h5Z"/><path class="cls-9" d="M381.22,444.4a18.64,18.64,0,0,0-28.06-16.06L199.88,518.12a40,40,0,0,0-19.82,34.63l.12,45.28h4.89L185,555.27a37.29,37.29,0,0,1,18.43-32.22l152-89a13.89,13.89,0,0,1,20.91,12L376.6,598h4.89Z"/><path class="cls-10" d="M382.37,445.06A18.65,18.65,0,0,0,354.3,429L201,518.78a40.06,40.06,0,0,0-19.82,34.64l.11,45.27h4.9l-.12-42.75a37.27,37.27,0,0,1,18.44-32.22l152-89.05a13.89,13.89,0,0,1,20.91,12l.26,152.05h4.9Z"/><g class="cls-11"><path class="cls-12" d="M355.26,426.26,202.41,512l-15.21-7.66h0c-15.17,6.2-24.07,20.62-24.09,33.88l-.22,61.49H384.34l-.79-157A19,19,0,0,0,355.26,426.26Z"/></g></g><g class="cls-13"><path class="cls-14" d="M401.72,547.73l40.37-6.13L553.3,599.05h42.82L464.78,543.1,447.93,506l258.22,93,93.85.68V532.57L400.69,422.88A41.62,41.62,0,0,0,370,427.27l-154.22,89a11.42,11.42,0,0,0-1.95,18.37l74.27,64.37H484.16Z"/><g class="cls-15"><path class="cls-16" d="M401.72,547.73l40.37-6.13L554.8,599.79l42.75.21L464.78,543.1,447.93,506l257.62,94H800V532.66L400.69,422.88A41.62,41.62,0,0,0,370,427.27l-154.22,89a11.42,11.42,0,0,0-1.95,18.37L288.22,600H486.55Z"/></g></g><g class="cls-17"><path class="cls-18" d="M394.7,538.79s-1.72,1.89.15,4.67c5,7.39,23.51,12.36,26.58,15.63s4.25,11.14,3.08,17.2-5.11,23.24-5.11,23.24h25.74s-5.64-35.65-4.57-43.41,3.06-10,2.92-16.13Z"/><path class="cls-19" d="M444.32,518.19a11.32,11.32,0,0,0,1.58,7.62c2.34,3.41,12.41,14.31,12.2,20.4S452.37,600,452.37,600h25.41s-7-40.2-5.08-50.61,3-6.94,3.52-14.5Z"/></g><path class="cls-20" d="M380.19,405.77,196.3,511.94a5,5,0,0,1-7.49-4.32l-.52-372L370.72,28.74a6,6,0,0,1,9,5.12Z"/><path class="cls-16" d="M380.19,405.77l-57.91-33.44-.53-315.39,43-24.81a10,10,0,0,1,15,8.62Z"/><path class="cls-7" d="M322.28,372.33l57.91,33.44-175.59,102a20.74,20.74,0,0,1-31.16-17.94V458.94Z"/><path class="cls-21" d="M311.36,383V344.37L183.83,396.62v38.67h0a5.26,5.26,0,0,0,2.66,4.49l8.56,5a15.35,15.35,0,0,0,15.32,0l98.34-57A5.26,5.26,0,0,0,311.36,383Z"/><path class="cls-16" d="M308.71,349.31l-98.34,57a15.35,15.35,0,0,1-15.32,0l-8.56-5a5.31,5.31,0,0,1,0-9.21l98.19-56.91a15.6,15.6,0,0,1,15.61,0l8.42,4.87A5.31,5.31,0,0,1,308.71,349.31Z"/><text class="cls-22" transform="matrix(0.89, -0.53, 0, 1, 216.93, 426.92)">Good evening</text><path class="cls-21" d="M311.36,327.74V289.15L183.83,341.4v38.67h0a5.26,5.26,0,0,0,2.66,4.49l8.56,4.95a15.3,15.3,0,0,0,15.32,0l98.34-57A5.26,5.26,0,0,0,311.36,327.74Z"/><path class="cls-16" d="M308.71,294.09l-98.34,57a15.3,15.3,0,0,1-15.32,0l-8.56-4.95a5.31,5.31,0,0,1,0-9.21L284.68,280a15.6,15.6,0,0,1,15.61,0l8.42,4.87A5.31,5.31,0,0,1,308.71,294.09Z"/><text class="cls-22" transform="matrix(0.89, -0.53, 0, 1, 211.41, 374.85)">Good afternoon</text><path class="cls-21" d="M331.87,276.46V237.87l-148,40.41V317h0a5.26,5.26,0,0,0,2.66,4.49l29.07,16.79a15.35,15.35,0,0,0,15.32,0l98.34-57A5.26,5.26,0,0,0,331.87,276.46Z"/><path class="cls-16" d="M329.22,242.81l-98.34,57a15.35,15.35,0,0,1-15.32,0L186.49,283a5.32,5.32,0,0,1,0-9.22l98.19-56.9a15.6,15.6,0,0,1,15.61,0l28.93,16.7A5.31,5.31,0,0,1,329.22,242.81Z"/><text class="cls-22" transform="matrix(0.89, -0.53, 0, 1, 235.07, 321.21)">Good morning</text><path class="cls-23" d="M341,16.63,185.13,107.92A40.75,40.75,0,0,0,165,143.15l.49,347.19c0,13.26,31.11,31.19,42.59,24.57l158.33-91.42a40.75,40.75,0,0,0,20.38-35.35l-.49-345.52C386.26,28,353.63,9.23,341,16.63ZM187.17,496.29l-.47-340.92a37.91,37.91,0,0,1,18.75-32.76l154.6-90.55a14.12,14.12,0,0,1,21.26,12.16l.48,342.21a37.92,37.92,0,0,1-19,32.89L208.36,508.5A14.13,14.13,0,0,1,187.17,496.29Z"/><path class="cls-9" d="M355.11,29.24,201.83,119A40.06,40.06,0,0,0,182,153.66l.48,341.42a17,17,0,0,0,25.42,14.65l155.7-89.9a40.07,40.07,0,0,0,20-34.76L383.17,45.3A18.64,18.64,0,0,0,355.11,29.24ZM187.37,491.42l-.46-335.24A37.28,37.28,0,0,1,205.34,124l152-89a13.89,13.89,0,0,1,20.91,12l.47,336.51a37.28,37.28,0,0,1-18.64,32.34l-151.9,87.7A13.9,13.9,0,0,1,187.37,491.42Z"/><path class="cls-10" d="M356.52,30.06,203.24,119.84a40.08,40.08,0,0,0-19.82,34.63l.48,341.42a17,17,0,0,0,25.42,14.65L365,420.65a40.07,40.07,0,0,0,20-34.76l-.48-339.77A18.64,18.64,0,0,0,356.52,30.06ZM188.79,492.24,188.32,157a37.27,37.27,0,0,1,18.44-32.22l26.35-15.52a8.91,8.91,0,0,1,9.91.56l5.32,4a9.63,9.63,0,0,0,10.68.62l45.33-26.53a13.68,13.68,0,0,0,5.08-5.19l11.72-21.14a23.6,23.6,0,0,1,8.7-8.9l28.94-17a13.89,13.89,0,0,1,20.91,12l.46,336.51a37.25,37.25,0,0,1-18.64,32.33l-151.9,87.71A13.89,13.89,0,0,1,188.79,492.24Z"/><path class="cls-8" d="M256.42,102.35v1.88a1.91,1.91,0,0,0,2.87,1.66l41.92-24.2a3,3,0,0,0,1.5-2.6V76.65a1.59,1.59,0,0,0-2.39-1.38l-42.4,24.48A3,3,0,0,0,256.42,102.35Z"/><path class="cls-24" d="M224.2,201.59v90.1a10.19,10.19,0,0,0,15.28,8.81l117.44-67.67A19.45,19.45,0,0,0,366.65,216V125.89a10.19,10.19,0,0,0-15.28-8.82L233.93,184.74A19.46,19.46,0,0,0,224.2,201.59Z"/><text class="cls-25" transform="matrix(0.85, -0.51, 0, 1, 228.95, 279.68)">早安</text><path class="cls-26" d="M475.89,527.45a40.68,40.68,0,0,1-1.72-7.79c-5.66-77.72,4.11-108.28-10.69-113.15-8.88-2.92-11.13,33.31-11.13,33.31s6.77,52.06,10,77.05c-1.11-.87-8-4.11-8.42-4.57-1.14-1.31-5.88-7.35-9.2-8.1-1.26-.28-2.84,2-3,4.26-.28,3.45,3.76,13.6,12.69,24,4.09,4.77,7,8.08,9.49,10.1C466.85,545,480.12,545.07,475.89,527.45Z"/><path class="cls-10" d="M475.52,525.73c-.41-1.4-1.11-10-1.35-13.35-1.28-17.55,1.38-44.14.34-59.22-3.59-51.72,4-86-17.34-91.31-9.07-2.26-10.74,70.45-10.74,70.45s6.62,49.77,9.82,74.76c-1.11.35-2.74-1-3.23-1.36-3.5-2.65-7.68-3.14-10.19-.75s2.05,12.05,11.63,21.87c4.51,4.63,7.12,6.81,10.06,8.1C468,536.45,478.23,535,475.52,525.73Z"/><path class="cls-27" d="M418.49,446.19s8.3,80.24,5.44,85c-2.63,4.36-17.2,4-22.13,2.74-1.71-.43-6.51-3.94-8.1-3.17-2.42,1.18-2.08,7.72-.64,10,5.74,9.06,27.13,13.69,38,15.86,7.1,1.41,15.36-6.2,11.44-24.35-2.6-12,8.77-32.45-2.31-86.05C438.92,440.06,418.49,446.19,418.49,446.19Z"/><path class="cls-10" d="M418.06,442.68s8.3,80.25,5.44,85c-2.63,4.36-17.2,4-22.13,2.74-1.71-.44-5.2-1.73-6.78-.95-2.43,1.18-3.4,5.5-1.95,7.78,5.73,9.06,27.88,11.45,38.93,12.12,6.06.36,13.58-3.75,11.25-15.75s11.33-37.31.25-90.92C441.8,436.56,418.06,442.68,418.06,442.68Z"/><path class="cls-10" d="M483.41,265.23s5.25,45.15,11.47,59.74c.46,1.08,3.29,2.52,3.29,4.74s0,8.86-1.75,10.12c-.93.66-4.54-.58-4.54-.58l-7.74-11.71L471.08,281Z"/><path class="cls-28" d="M407.46,286.46s-11,53.76-15.38,178.93c-.36,10.3,25.42,17.5,37.62,18.36,16.12,1.13,39.94-13.95,39.94-13.95l-4.28-95.08,9.43,92.87s29.36-14.92,29-20.09C494.45,315.17,491.37,310,473,285.09,462.78,271.32,407.46,286.46,407.46,286.46Z"/><path class="cls-29" d="M400.19,253.8c1.43,4.85,1.78,19.19,7.33,26.39,3,3.84,14.8,26.56,26.27,26.55,13.06,0,34.22-18.22,34.1-24.52-.07-3.17,1.92-7.39,5-10.94,2.5-2.85,6.17-24.48,6.28-25.08C479.21,246.2,394.94,235.85,400.19,253.8Z"/><path class="cls-9" d="M407.46,286.46s-11,53.76-15.38,178.93c-.07,2.15,1,4.16,2.84,6,.9-48.32,13.32-158.73,16.45-185.93C408.91,286.06,407.46,286.46,407.46,286.46Z"/><path class="cls-9" d="M395,468.88s6.88-106.3,10.88-111.43,1.18-7.17,2.59-14.14,5.32-6.65,5.43-9.55c.33-8.88-5.17-10.4-2.62-18.66.79-2.56,6.55-7.45,3.33-17S411.37,284,411.37,284l-3.91,2.49L394,460.85Z"/><path class="cls-10" d="M479.21,203.47s12.18,55.06,12.18,59.43-20.79,23.49-24.76,22.35S479.21,203.47,479.21,203.47Z"/><path class="cls-29" d="M400.19,253.8c1.43,4.85,1.78,19.19,7.33,26.39,3,3.84,14.8,26.56,26.27,26.55,13.06,0,34.22-18.22,34.1-24.52-.07-3.17,1.92-7.39,5-10.94,2.5-2.85,6.17-24.48,6.28-25.08C479.21,246.2,394.94,235.85,400.19,253.8Z"/><path class="cls-9" d="M410.56,282.94c-5.33-5.66-4.49-9.86-5.46-13.05-.82-2.73-2.69-17.18-3.23-21.39a4.76,4.76,0,0,0-1.68,5.3c1.43,4.85,1.78,19.19,7.33,26.39.77,1,2.14,3.27,4,6.08C411.55,284.6,411.93,284.39,410.56,282.94Z"/><path class="cls-30" d="M481.14,197.11c-1.77-4.14-22.93-22.78-28.92-21.59-2.28.46-5.38,2.28-9,2.68-1.48,3-7.7,6.78-11.66,8.35C428,188,428,183,424.78,183.3c-15.23,5.32-25.52,12.4-27.56,15.07s.06,46.89,3.47,64.53c1.16,6,18.75,15.6,19.54,16,5.95,2.86,16.78,3.21,25.23-.95,0,0,33-15.06,37.23-22.07C486.11,250.25,482.69,200.72,481.14,197.11Z"/><path class="cls-9" d="M405.78,198.78c4.73-3.91,11.94-10.8,21.35-14.48a2.73,2.73,0,0,0-2.35-1c-15.23,5.32-25.52,12.4-27.56,15.07-.58.75-.83,4.72-.82,10.42A70.23,70.23,0,0,1,405.78,198.78Z"/><path class="cls-10" d="M472.93,271.28c-8.93,8.8-31.81,21.6-42.61,21.6s-18-6.57-22.31-11.78c-.3.16-.59,2.46-1.32,6.66-.39,2.27-1.2,6.23-.67,6.85,3.1,3.59,16.39,15.39,26.72,15.38,11.76,0,41-18.32,40.93-24.41C473.6,281.83,472.73,277,472.93,271.28Z"/><path class="cls-9" d="M408.16,280.83c-.54.3-.74,2.73-1.47,6.93-.39,2.27-1.22,6.05-.84,6.78.7,1.33,7.85,7.5,6.73,6.1-1.78-2.23-1-15.71-1-15.71A40,40,0,0,1,408.16,280.83Z"/><path class="cls-10" d="M314.67,266.93c1.41.1,4-.86,5.59-.59,8.81,1.48,35,7.06,42.62,3.42,9-4.3,22.67-12.29,12.93-21.53-6.39-6.08-25.83,6.11-25.83,6.11s-15.4,5.31-27.25,2.36c-2.11-.53-4.57-3.44-6.12-6.17s-1.89-4.34-2.88-5.55c-.45-.55-2.84-2.45-2,1.94.54,2.94.44,3.6,0,4-1.66,1.32-2.58-.65-7.42.43a18.13,18.13,0,0,0-7.52,3.23c-.44.28-1.51,1.69.12,2.09,1.43.35,5.58-1.84,5.83-.86s-6.84,7.15-6.84,7.15a1.48,1.48,0,0,0-.27,1.67l.67,1.4a3,3,0,0,0,2.5,1.5c2.37-.1,6.79-2.42,9.16-2.41C309.65,265.09,312.92,266.81,314.67,266.93Z"/><path class="cls-9" d="M297.38,255.19a23.32,23.32,0,0,1,8.7-2.53c2.73-.15,4.57.74,6,.23a3.37,3.37,0,0,0,1.58-2.52c.06-.91-1.14-4.42-.67-6-1.27-.75-1.72.15-1.28,2.57.54,2.94.44,3.6,0,4-1.66,1.32-2.58-.65-7.42.43a18.13,18.13,0,0,0-7.52,3.23c-.38.24-1.22,1.32-.41,1.87A2.33,2.33,0,0,1,297.38,255.19Z"/><path class="cls-9" d="M303.45,257.31c.2-.35,0-1.6-.9-1.7a.36.36,0,0,1,.09.08.25.25,0,0,1,0,.09c.22.84-6.84,7.15-6.84,7.15a1.48,1.48,0,0,0-.27,1.67l.13.26C296.92,263.87,302.2,259.52,303.45,257.31Z"/><path class="cls-31" d="M450.44,167.73a9.13,9.13,0,0,1-3.66-.17c-3-.77-2.87-3.74-2.95-5.71s1.3-5.35,1.57-6.14c3.9-11.31,8.65-53.09-34.32-37.18-6.26,2.31-12.4,8.13-9.76,24.82.73,4.65,4.76,7.41,3.73,11.13s4.75,17.82,12.88,20.79c1.9.7,5.37-.1,6.31.77a2.83,2.83,0,0,1,.26,3.78,19.16,19.16,0,0,1-2.38,3c3.33-.43,12.36-1.73,16.08-3.66C442.36,177,448.88,171.82,450.44,167.73Z"/><path class="cls-9" d="M409,163c-2.18-5.38-1.32-5.29.65-9.21,1.8-3.62-5.18-1.94-8.78-13.68.1,1,.23,2.08.41,3.2.73,4.65,4.76,7.41,3.73,11.13s4.75,17.82,12.88,20.79a8.93,8.93,0,0,0,2.93.32h0C419.07,174.75,411.22,168.41,409,163Z"/><path class="cls-10" d="M398.52,133.67c.08,3,1.64,7.84,4.53,10.4s5.48,5.58,7,7.17c2,2.07,4.84-7.4,8.56-.06,2.21,4.36-1.93,10-3.07,11.26s-8.87,16.4,0,24.66,13,9.23,8.21,16-4,19,4.87,21.7,19-5.63,22.34-10.94c5.46-8.76,19.36-7.32,23-11,8-8.05,9.88-20.66,5-29.52-3.27-5.9-18.3-10.52-14-18.11,4.15-7.33-4.69-14.69-7.25-23.73s-12.6-20.41-28.63-20.07-16,6-16,6S398.09,119,398.52,133.67Z"/><path class="cls-9" d="M406.06,123.26c6.52-4,7-3.66,7.05-5.84,0,0-15,1.55-14.59,16.25.08,3,1.64,7.84,4.53,10.4s5.48,5.58,7,7.17c.59.6,1.25.22,2-.44l-1.64-1.21C399.43,141.57,399.44,127.37,406.06,123.26Z"/><path class="cls-9" d="M415.86,182.73c-2.93-4.19-.53-17.27.28-21-.22.29-.42.53-.57.69-1.13,1.25-8.87,16.4,0,24.66.76.7,1.64,1.5,2.32,2.1C417.89,189.19,418.92,187.11,415.86,182.73Z"/><path class="cls-32" d="M412.67,151.83s1.82-1.54,2.58-.69,2.16,2.72,1.46,5a22.58,22.58,0,0,1-1.24,3.26s3-3.12,2.47-5.6-1.62-3.66-2.75-3.78S412.67,151.83,412.67,151.83Z"/><path class="cls-10" d="M347.05,211.85l.08.06Z"/><path class="cls-10" d="M347.22,212a.79.79,0,0,1,.12.26A.89.89,0,0,0,347.22,212Z"/><path class="cls-10" d="M311.61,244.72a.14.14,0,0,1,0-.07A.14.14,0,0,0,311.61,244.72Z"/><path class="cls-10" d="M296.12,255.3a.91.91,0,0,1,.07-.14A.91.91,0,0,0,296.12,255.3Z"/><path class="cls-10" d="M311.54,245.19c0-.06,0-.13,0-.18S311.55,245.13,311.54,245.19Z"/><path class="cls-10" d="M296.49,254.76l.07-.07Z"/><path class="cls-10" d="M296.29,255l.08-.11Z"/><path class="cls-10" d="M311.55,245.85c0-.12,0-.24,0-.35C311.54,245.61,311.55,245.73,311.55,245.85Z"/><path class="cls-10" d="M347.36,212.32a2.62,2.62,0,0,1,.06.43A3,3,0,0,0,347.36,212.32Z"/><path class="cls-10" d="M311.58,246.14c0,.23.06.49.11.78a21.59,21.59,0,0,1,.35,2.45,21.59,21.59,0,0,0-.35-2.45C311.64,246.64,311.6,246.38,311.58,246.14Z"/><path class="cls-10" d="M302.61,255.66a.29.29,0,0,1,.07.12.25.25,0,0,0,0-.09Z"/><path class="cls-10" d="M296,255.91a.86.86,0,0,1,0-.16A.86.86,0,0,0,296,255.91Z"/><path class="cls-10" d="M296.16,256.26a.71.71,0,0,1-.12-.2A.71.71,0,0,0,296.16,256.26Z"/><path class="cls-9" d="M320,264.64c-.92-.25-4.14,1-5.31.92s-4.7-1.12-5.19-1c-.29.05-1.37.36-2.17.6a4,4,0,0,1,.58,0c1.75,0,5,1.72,6.77,1.84,1.41.1,4-.86,5.59-.59,8.31,1.4,32.05,6.44,41.14,4C370.21,264.21,320.9,264.89,320,264.64Z"/><path class="cls-10" d="M296,255.6a.88.88,0,0,1,.05-.15A.88.88,0,0,0,296,255.6Z"/><path class="cls-9" d="M296.37,254.9l.12-.14Z"/><path class="cls-9" d="M296.06,255.45a.47.47,0,0,1,.06-.15A.47.47,0,0,0,296.06,255.45Z"/><path class="cls-9" d="M296,255.75c0-.05,0-.1,0-.15S296,255.7,296,255.75Z"/><path class="cls-9" d="M296.32,256.42h0a.78.78,0,0,1-.16-.15A1.21,1.21,0,0,0,296.32,256.42Z"/><path class="cls-9" d="M296.19,255.16a1.3,1.3,0,0,1,.1-.15A1.3,1.3,0,0,0,296.19,255.16Z"/><path class="cls-9" d="M297.76,253.87l.64-.41Z"/><path class="cls-9" d="M296,256.06a.88.88,0,0,1-.05-.15A.88.88,0,0,0,296,256.06Z"/><path class="cls-9" d="M347.34,212.27l0,0Z"/><path class="cls-9" d="M312,244.15a.74.74,0,0,0-.37.5A.75.75,0,0,1,312,244.15Z"/><path class="cls-9" d="M347.42,212.77v0Z"/><path class="cls-9" d="M297.48,254.05l-.75.5a1,1,0,0,0-.17.14,1,1,0,0,1,.17-.14Z"/><path class="cls-9" d="M311.53,245.5c0-.11,0-.21,0-.31C311.54,245.29,311.53,245.39,311.53,245.5Z"/><path class="cls-9" d="M311.58,246.14c0-.11,0-.2,0-.29C311.56,245.94,311.56,246,311.58,246.14Z"/><path class="cls-9" d="M311.56,245a1.25,1.25,0,0,1,.05-.29A1.25,1.25,0,0,0,311.56,245Z"/><path class="cls-9" d="M347.13,211.91l.09.1Z"/><path class="cls-9" d="M297.38,255.19a23.51,23.51,0,0,1,8.7-2.53c2.73-.15,4.57.74,6,.23a3.37,3.37,0,0,0,1.58-2.52c.06-.91-1.14-4.42-.67-6h0a2.64,2.64,0,0,0-.4-.18l-.05,0a1,1,0,0,0-.29,0l-.13,0-.09,0a.75.75,0,0,0-.37.5.14.14,0,0,0,0,.07,1.25,1.25,0,0,0-.05.29c0,.05,0,.12,0,.18s0,.2,0,.31,0,.23,0,.35,0,.18,0,.29.06.5.11.78a21.59,21.59,0,0,1,.35,2.45c.07.95-.08,1.29-.37,1.52-1.66,1.32-2.58-.65-7.42.43a19.43,19.43,0,0,0-5.85,2.14l-.64.41-.28.18-.75.5a1,1,0,0,0-.17.14l-.07.07-.12.14-.08.11a1.3,1.3,0,0,0-.1.15.91.91,0,0,0-.07.14.47.47,0,0,0-.06.15.88.88,0,0,0-.05.15c0,.05,0,.1,0,.15a.86.86,0,0,0,0,.16.88.88,0,0,0,.05.15.71.71,0,0,0,.12.2.78.78,0,0,0,.16.15A2.32,2.32,0,0,1,297.38,255.19Z"/><path class="cls-9" d="M296.14,262.66l.8-.73Z"/><path class="cls-9" d="M298.69,260.29,300,259Z"/><path class="cls-9" d="M300,259c.42-.42.83-.84,1.2-1.23C300.82,258.2,300.41,258.62,300,259Z"/><polygon class="cls-9" points="295.7 264.86 295.7 264.86 295.57 264.6 295.7 264.86"/><path class="cls-9" d="M302.68,255.78h0c.07.26-.58,1.06-1.49,2C302.1,256.84,302.75,256,302.68,255.78Z"/><path class="cls-9" d="M302.56,255.61h0l.06,0Z"/><path class="cls-9" d="M303.45,257.31c.2-.35,0-1.59-.89-1.7l.05,0,0,0a.25.25,0,0,1,0,.09h0c.07.26-.58,1.06-1.49,2-.37.39-.78.81-1.2,1.23l-1.3,1.25c-.64.62-1.26,1.19-1.75,1.64l-.8.73-.3.27a1.48,1.48,0,0,0-.27,1.67l.13.26C296.92,263.87,302.2,259.52,303.45,257.31Z"/><path class="cls-33" d="M408.46,233.85l-10.49,7c.73,8.56,1.66,16.59,2.72,22.06,1,5.13,13.95,12.87,18.21,15.26C413.58,275.13,408.46,233.85,408.46,233.85Z"/><path class="cls-34" d="M397.22,198.37S384.88,219,379.66,225.31s-19.13,21.78-19.88,22.76c-1.21,1.6-3.43,41.35,6.05,44s40.24-45.32,42.18-55S408.29,200.86,397.22,198.37Z"/><path class="cls-9" d="M359,273.39c.72,9.14,2.62,17.52,6.8,18.69a4.54,4.54,0,0,0,2.93-.4C362.73,292.42,360,279.17,359,273.39Z"/><path class="cls-9" d="M402.39,201.92a8.83,8.83,0,0,0-5.17-3.55S384.88,219,379.66,225.31c-.53.64-1.16,1.38-1.86,2.19C384.22,221.72,397.35,206.56,402.39,201.92Z"/></svg>