<?xml version="1.0"?>
<svg xmlns="http://www.w3.org/2000/svg" height="512px" viewBox="0 0 480 480" width="512px" class=""><g><path d="m456 32h-280v-8c0-13.253906-10.746094-24-24-24h-128c-13.253906 0-24 10.746094-24 24v432c0 13.253906 10.746094 24 24 24h432c13.253906 0 24-10.746094 24-24v-400c0-13.253906-10.746094-24-24-24zm-440-8c0-4.417969 3.582031-8 8-8h128c4.417969 0 8 3.582031 8 8v8h-144zm448 432c0 4.417969-3.582031 8-8 8h-432c-4.417969 0-8-3.582031-8-8v-408h440c4.417969 0 8 3.582031 8 8zm0 0" data-original="#000000" class="active-path" data-old_color="#842727" fill="#2E0069"/><path d="m248 336h-144c-13.253906 0-24 10.746094-24 24v48c0 13.253906 10.746094 24 24 24h144c13.253906 0 24-10.746094 24-24v-48c0-13.253906-10.746094-24-24-24zm8 72c0 4.417969-3.582031 8-8 8h-144c-4.417969 0-8-3.582031-8-8v-48c0-4.417969 3.582031-8 8-8h144c4.417969 0 8 3.582031 8 8zm0 0" data-original="#000000" class="active-path" data-old_color="#842727" fill="#2E0069"/><path d="m211.449219 254.574219c1.335937.929687 2.925781 1.425781 4.550781 1.425781.960938 0 1.914062-.171875 2.816406-.503906l64-24c3.128906-1.167969 5.203125-4.15625 5.203125-7.496094s-2.074219-6.328125-5.203125-7.496094l-64-24c-2.457031-.925781-5.214844-.582031-7.375.914063-2.15625 1.496093-3.445312 3.957031-3.441406 6.582031v48c0 2.625 1.289062 5.082031 3.449219 6.574219zm12.550781-43.03125 33.214844 12.457031-33.214844 12.457031zm0 0" data-original="#000000" class="active-path" data-old_color="#842727" fill="#2E0069"/><path d="m400 144h-320v160h320zm-16 144h-288v-128h288zm0 0" data-original="#000000" class="active-path" data-old_color="#842727" fill="#2E0069"/><path d="m104 128h16c13.253906 0 24-10.746094 24-24v-16c0-13.253906-10.746094-24-24-24h-16c-13.253906 0-24 10.746094-24 24v16c0 13.253906 10.746094 24 24 24zm-8-40c0-4.417969 3.582031-8 8-8h16c4.417969 0 8 3.582031 8 8v16c0 4.417969-3.582031 8-8 8h-16c-4.417969 0-8-3.582031-8-8zm0 0" data-original="#000000" class="active-path" data-old_color="#842727" fill="#2E0069"/><path d="m176 128h96c8.835938 0 16-7.164062 16-16v-16c0-8.835938-7.164062-16-16-16h-96c-8.835938 0-16 7.164062-16 16v16c0 8.835938 7.164062 16 16 16zm0-32h96v16h-96zm0 0" data-original="#000000" class="active-path" data-old_color="#842727" fill="#2E0069"/><path d="m408 376h-112c-4.417969 0-8 3.582031-8 8s3.582031 8 8 8h112c4.417969 0 8-3.582031 8-8s-3.582031-8-8-8zm0 0" data-original="#000000" class="active-path" data-old_color="#842727" fill="#2E0069"/><path d="m408 344h-112c-4.417969 0-8 3.582031-8 8s3.582031 8 8 8h112c4.417969 0 8-3.582031 8-8s-3.582031-8-8-8zm0 0" data-original="#000000" class="active-path" data-old_color="#842727" fill="#2E0069"/><path d="m408 408h-112c-4.417969 0-8 3.582031-8 8s3.582031 8 8 8h112c4.417969 0 8-3.582031 8-8s-3.582031-8-8-8zm0 0" data-original="#000000" class="active-path" data-old_color="#842727" fill="#2E0069"/><path d="m173.65625 362.34375c-3.140625-3.03125-8.128906-2.988281-11.214844.097656-3.085937 3.085938-3.128906 8.074219-.097656 11.214844l10.34375 10.34375-10.34375 10.34375c-2.078125 2.007812-2.914062 4.984375-2.179688 7.78125.730469 2.796875 2.914063 4.980469 5.710938 5.710938 2.796875.734374 5.773438-.101563 7.78125-2.179688l16-16c3.121094-3.125 3.121094-8.1875 0-11.3125zm0 0" data-original="#000000" class="active-path" data-old_color="#842727" fill="#2E0069"/><path d="m120 192h32c4.417969 0 8-3.582031 8-8s-3.582031-8-8-8h-32c-4.417969 0-8 3.582031-8 8s3.582031 8 8 8zm0 0" data-original="#000000" class="active-path" data-old_color="#842727" fill="#2E0069"/></g> </svg>
