<?xml version="1.0"?>
<svg xmlns="http://www.w3.org/2000/svg" height="512px" viewBox="0 0 512 512" width="512px" class=""><g><path d="m422.234375 412h-.269531c-5.523438 0-10 4.476562-10 10s4.476562 10 10 10h.269531c5.523437 0 10-4.476562 10-10s-4.476563-10-10-10zm0 0" data-original="#000000" class="active-path" data-old_color="#8E1E1E" fill="#2E0069"/><path d="m69.039062 72h.269532c5.523437 0 10-4.476562 10-10s-4.476563-10-10-10h-.269532c-5.519531 0-10 4.476562-10 10s4.480469 10 10 10zm0 0" data-original="#000000" class="active-path" data-old_color="#8E1E1E" fill="#2E0069"/><path d="m482 52h-136v-26c0-14.335938-11.664062-26-26-26h-128c-14.335938 0-26 11.664062-26 26v26h-57.039062c-5.519532 0-10 4.476562-10 10s4.480468 10 10 10h57.039062v20h-146v-10c0-5.511719 4.484375-10 10-10h10c5.523438 0 10-4.476562 10-10s-4.476562-10-10-10h-10c-16.542969 0-30 13.457031-30 30v320c0 16.542969 13.457031 30 30 30h164.824219l-7.820313 60h-11.003906c-5.523438 0-10 4.476562-10 10s4.476562 10 10 10h160c5.519531 0 10-4.476562 10-10s-4.480469-10-10-10h-11.003906l-7.824219-60h64.828125c5.519531 0 10-4.476562 10-10s-4.480469-10-10-10h-352c-5.515625 0-10-4.484375-10-10v-20h177.710938c4.128906 11.640625 15.25 20 28.289062 20h60c13.035156 0 24.15625-8.359375 28.285156-20h177.710938v20c0 5.515625-4.484375 10-9.996094 10h-31.035156c-5.523438 0-10 4.476562-10 10s4.476562 10 10 10h31.035156c16.539062 0 29.996094-13.457031 29.996094-30v-320c0-16.542969-13.457032-30-29.996094-30zm-177.175781 440h-97.652344l7.824219-60h82.007812zm177.175781-420c5.511719 0 9.996094 4.488281 9.996094 10v10h-145.996094v-20zm-290 170c-3.253906 0-6-2.75-6-6v-44.707031c1.925781.457031 3.933594.707031 6 .707031h128c2.0625 0 4.074219-.25 6-.707031v44.707031c0 3.25-2.75 6-6 6zm70 86c0 3.308594-2.691406 6-6 6s-6-2.691406-6-6c0-3.304688 2.6875-5.996094 5.992188-6h.007812.003906c3.304688.003906 5.996094 2.695312 5.996094 6zm-76-206.707031c1.925781.457031 3.933594.707031 6 .707031h128c2.0625 0 4.074219-.25 6-.707031v44.707031c0 3.25-2.75 6-6 6h-128c-3.253906 0-6-2.75-6-6zm140-25.292969c0 3.25-2.75 6-6 6h-128c-3.253906 0-6-2.75-6-6v-44.707031c1.925781.457031 3.933594.707031 6 .707031h128c2.0625 0 4.070312-.25 6-.707031zm-134-76h128c3.25 0 6 2.746094 6 6 0 3.25-2.75 6-6 6h-128c-3.253906 0-6-2.75-6-6 0-3.253906 2.746094-6 6-6zm114 342c-5.523438 0-10 4.476562-10 10 0 5.511719-4.488281 10-10 10h-60c-5.515625 0-10-4.488281-10-10 0-5.523438-4.476562-10-10-10h-186v-249.996094h146v123.996094c0 14.335938 11.664062 26 26 26v19.6875c0 3.253906-2.75 6-6 6h-28.003906c-3.925782-9.386719-13.203125-16-23.996094-16-14.335938 0-26 11.664062-26 26s11.664062 26 26 26c10.792969 0 20.070312-6.613281 23.996094-16h28.003906c14.335938 0 26-11.660156 26-26v-19.6875h34v42.003906c-9.386719 3.925782-16 13.203125-16 23.996094 0 14.335938 11.664062 26 26 26s26-11.664062 26-26c0-10.792969-6.613281-20.070312-16-23.996094v-42.003906h34v19.6875c0 14.335938 11.660156 26 26 26h28c3.925781 9.386719 13.203125 16 23.996094 16 14.339844 0 26.003906-11.664062 26.003906-26s-11.664062-26-26.003906-26c-10.792969 0-20.070313 6.613281-23.996094 16h-28c-3.253906 0-6-2.746094-6-6v-19.6875c14.335938 0 26-11.664062 26-26v-123.996094h145.996094v249.996094zm-166-64.308594c-.003906 3.308594-2.691406 5.996094-6 5.996094s-6-2.691406-6-6 2.691406-6 6-6 5.996094 2.6875 6 5.996094v.003906zm232-.003906c0-3.308594 2.6875-6 5.996094-6s6.003906 2.691406 6.003906 6-2.695312 6-6.003906 6c-3.304688 0-5.996094-2.691406-5.996094-6zm0 0" data-original="#000000" class="active-path" data-old_color="#8E1E1E" fill="#2E0069"/><path d="m276 67h-40c-5.523438 0-10 4.476562-10 10s4.476562 10 10 10h40c5.519531 0 10-4.476562 10-10s-4.480469-10-10-10zm0 0" data-original="#000000" class="active-path" data-old_color="#8E1E1E" fill="#2E0069"/><path d="m236 157h40c5.519531 0 10-4.476562 10-10s-4.480469-10-10-10h-40c-5.523438 0-10 4.476562-10 10s4.476562 10 10 10zm0 0" data-original="#000000" class="active-path" data-old_color="#8E1E1E" fill="#2E0069"/><path d="m276 207h-40c-5.523438 0-10 4.476562-10 10s4.476562 10 10 10h40c5.519531 0 10-4.476562 10-10s-4.480469-10-10-10zm0 0" data-original="#000000" class="active-path" data-old_color="#8E1E1E" fill="#2E0069"/><path d="m88.234375 287.6875h-.234375c-5.523438 0-10 4.476562-10 10s4.476562 10 10 10h.234375c5.523437 0 10-4.476562 10-10s-4.476563-10-10-10zm0 0" data-original="#000000" class="active-path" data-old_color="#8E1E1E" fill="#2E0069"/><path d="m424 287.6875h-.238281c-5.519531 0-10 4.476562-10 10s4.480469 10 10 10h.238281c5.519531 0 10-4.476562 10-10s-4.480469-10-10-10zm0 0" data-original="#000000" class="active-path" data-old_color="#8E1E1E" fill="#2E0069"/><path d="m462 134.5h-.238281c-5.523438 0-10 4.480469-10 10 0 5.523438 4.476562 10 10 10h.238281c5.519531 0 10-4.476562 10-10 0-5.519531-4.480469-10-10-10zm0 0" data-original="#000000" class="active-path" data-old_color="#8E1E1E" fill="#2E0069"/><path d="m431.996094 134.5h-.234375c-5.523438 0-10 4.480469-10 10 0 5.523438 4.476562 10 10 10h.234375c5.523437 0 10-4.476562 10-10 0-5.519531-4.476563-10-10-10zm0 0" data-original="#000000" class="active-path" data-old_color="#8E1E1E" fill="#2E0069"/><path d="m401.996094 134.5h-.234375c-5.523438 0-10 4.480469-10 10 0 5.523438 4.476562 10 10 10h.234375c5.523437 0 10-4.476562 10-10 0-5.519531-4.476563-10-10-10zm0 0" data-original="#000000" class="active-path" data-old_color="#8E1E1E" fill="#2E0069"/></g> </svg>
