<?xml version="1.0"?>
<svg xmlns="http://www.w3.org/2000/svg" height="512px" viewBox="0 0 496 496" width="512px"><g><path d="m157.808594 253.902344 18.191406 11.585937 18.191406-11.578125c48.71875-31.007812 77.808594-84 77.808594-141.742187v-20.558594l-96-61.097656-96 61.097656v20.558594c0 57.742187 29.089844 110.734375 77.808594 141.734375zm27.800781-13.496094-9.609375 6.113281-9.601562-6.113281c-14.925782-9.496094-27.757813-21.316406-38.277344-34.773438 1.246094-25.367187 22.207031-45.632812 47.878906-45.632812s46.632812 20.265625 47.878906 45.632812c-10.519531 13.457032-23.351562 25.277344-38.269531 34.773438zm-25.609375-112.40625v-16c0-8.824219 7.175781-16 16-16s16 7.175781 16 16v16c0 8.824219-7.175781 16-16 16s-16-7.175781-16-16zm-64-27.609375 80-50.902344 80 50.902344v11.777344c0 26.777343-6.953125 52.390625-19.625 74.808593-6.054688-17.335937-19.320312-31.289062-36.230469-38.207031 4.832031-5.609375 7.855469-12.808593 7.855469-20.769531v-16c0-17.648438-14.351562-32-32-32s-32 14.351562-32 32v16c0 7.960938 3.023438 15.160156 7.855469 20.769531-16.910157 6.917969-30.175781 20.878907-36.230469 38.207031-12.671875-22.417968-19.625-48.03125-19.625-74.808593zm0 0" data-original="#000000" class="active-path" data-old_color="#CC1F1F" fill="#2E0069"/><path d="m32 400h16v16h-16zm0 0" data-original="#000000" class="active-path" data-old_color="#CC1F1F" fill="#2E0069"/><path d="m64 400h16v16h-16zm0 0" data-original="#000000" class="active-path" data-old_color="#CC1F1F" fill="#2E0069"/><path d="m96 400h16v16h-16zm0 0" data-original="#000000" class="active-path" data-old_color="#CC1F1F" fill="#2E0069"/><path d="m456 96h-8v-96h-400v96h-8c-22.054688 0-40 17.945312-40 40v272c0 22.054688 17.945312 40 40 40h104v32h-32v16h272v-16h-32v-32h104c22.054688 0 40-17.945312 40-40v-272c0-22.054688-17.945312-40-40-40zm-416 16h24v-96h368v272h-368v-160h-16v176h400v-192h8c13.230469 0 24 10.769531 24 24v248h-332.6875l-16-16h-115.3125v-232c0-13.230469 10.769531-24 24-24zm416 320h-280v16h160v32h-176v-48h-120c-13.230469 0-24-10.769531-24-24v-24h108.6875l16 16h339.3125v8c0 13.230469-10.769531 24-24 24zm0 0" data-original="#000000" class="active-path" data-old_color="#CC1F1F" fill="#2E0069"/><path d="m288 32h128v16h-128zm0 0" data-original="#000000" class="active-path" data-old_color="#CC1F1F" fill="#2E0069"/><path d="m288 64h128v16h-128zm0 0" data-original="#000000" class="active-path" data-old_color="#CC1F1F" fill="#2E0069"/><path d="m320 96h96v16h-96zm0 0" data-original="#000000" class="active-path" data-old_color="#CC1F1F" fill="#2E0069"/><path d="m288 96h16v16h-16zm0 0" data-original="#000000" class="active-path" data-old_color="#CC1F1F" fill="#2E0069"/><path d="m288 128h128v16h-128zm0 0" data-original="#000000" class="active-path" data-old_color="#CC1F1F" fill="#2E0069"/><path d="m288 160h128v16h-128zm0 0" data-original="#000000" class="active-path" data-old_color="#CC1F1F" fill="#2E0069"/><path d="m400 192h16v16h-16zm0 0" data-original="#000000" class="active-path" data-old_color="#CC1F1F" fill="#2E0069"/><path d="m288 192h96v16h-96zm0 0" data-original="#000000" class="active-path" data-old_color="#CC1F1F" fill="#2E0069"/><path d="m288 224h128v16h-128zm0 0" data-original="#000000" class="active-path" data-old_color="#CC1F1F" fill="#2E0069"/><path d="m344 256h16v16h-16zm0 0" data-original="#000000" class="active-path" data-old_color="#CC1F1F" fill="#2E0069"/><path d="m312 256h16v16h-16zm0 0" data-original="#000000" class="active-path" data-old_color="#CC1F1F" fill="#2E0069"/><path d="m376 256h16v16h-16zm0 0" data-original="#000000" class="active-path" data-old_color="#CC1F1F" fill="#2E0069"/></g> </svg>
