<?xml version="1.0" standalone="no"?>
<!DOCTYPE svg PUBLIC "-//W3C//DTD SVG 20010904//EN"
 "http://www.w3.org/TR/2001/REC-SVG-20010904/DTD/svg10.dtd">
<svg version="1.0" xmlns="http://www.w3.org/2000/svg"
 width="600.000000pt" height="600.000000pt" viewBox="0 0 600.000000 600.000000"
 preserveAspectRatio="xMidYMid meet">
<metadata>
Created by potrace 1.11, written by Peter Selinger 2001-2013
</metadata>
<g transform="translate(0.000000,600.000000) scale(0.100000,-0.100000)"
fill="#000000" stroke="none">
<path d="M1225 5893 c-216 -44 -361 -120 -499 -259 -54 -55 -160 -193 -165
-216 -1 -4 -15 -36 -30 -70 -48 -106 -73 -228 -73 -353 0 -60 5 -132 12 -160
6 -27 13 -57 15 -65 11 -54 86 -216 117 -255 4 -5 99 -129 210 -275 110 -146
253 -333 317 -416 64 -84 172 -225 241 -315 190 -249 222 -329 216 -534 -5
-173 -35 -249 -165 -420 -100 -133 -472 -618 -516 -675 -181 -232 -316 -417
-347 -475 -134 -257 -137 -537 -7 -798 48 -97 81 -145 153 -224 106 -115 256
-209 401 -251 93 -27 136 -33 236 -34 173 -1 294 38 529 172 80 46 165 94 190
108 25 14 50 28 55 32 6 4 30 19 55 32 25 14 63 35 85 48 22 13 65 36 95 53
30 17 67 38 82 49 14 10 28 18 31 18 3 0 40 20 81 45 42 25 79 45 81 45 3 0
34 18 70 40 36 22 68 40 71 40 3 0 30 16 60 35 30 19 56 35 59 35 2 0 26 13
53 29 26 15 68 39 93 53 24 14 89 51 144 83 55 31 118 67 140 79 22 12 168 96
325 186 157 89 305 174 330 188 25 14 119 68 210 120 91 52 185 106 210 120
286 160 778 444 825 475 197 132 354 371 405 617 24 119 21 325 -8 435 -64
242 -193 433 -384 567 -48 35 -691 406 -1038 600 -25 14 -166 95 -315 180
-148 85 -290 166 -315 180 -25 14 -63 35 -85 48 -22 12 -44 25 -50 30 -5 4
-39 23 -75 43 -36 19 -135 75 -220 124 -85 49 -162 92 -170 96 -8 4 -28 15
-45 26 -16 10 -47 28 -68 40 -21 12 -71 40 -110 63 -40 22 -101 58 -137 78
-36 20 -144 81 -240 137 -96 55 -202 115 -235 133 -33 18 -96 55 -141 81 -77
46 -106 62 -241 135 -58 31 -180 75 -248 90 -36 7 -242 13 -270 7z"/>
</g>
</svg>
