<svg id="Layer_1" data-name="Layer 1" xmlns="http://www.w3.org/2000/svg" viewBox="0 0 600 600"><defs><style>.cls-1{fill:#2e0069;}</style></defs><title>R1</title><path class="cls-1" d="M545.66,13H62.33A48.39,48.39,0,0,0,14,61.33V399.67A48.39,48.39,0,0,0,62.33,448H224.75l-15.82,87H171a29,29,0,1,0,0,58H437a29,29,0,0,0,0-58h-38l-15.82-87H545.66A48.38,48.38,0,0,0,594,399.67V61.33A48.38,48.38,0,0,0,545.66,13ZM33.33,61.33a29,29,0,0,1,29-29H545.66a29,29,0,0,1,29,29v290H33.33ZM379.41,535H352.33a9.67,9.67,0,1,0,0,19.33h84.72a9.67,9.67,0,1,1,0,19.34H170.94a9.67,9.67,0,0,1,0-19.34H294.33a9.67,9.67,0,0,0,0-19.33H228.58l15.81-87h119.2ZM574.66,399.67a29,29,0,0,1-29,29H62.33a29,29,0,0,1-29-29v-29H574.66Z"/><path class="cls-1" d="M527,51.67H333.62A9.67,9.67,0,0,0,324,61.33v261a9.67,9.67,0,0,0,9.67,9.67H527a9.67,9.67,0,0,0,9.67-9.67v-261A9.67,9.67,0,0,0,527,51.67Zm-9.67,261h-174V71h174Z"/><path class="cls-1" d="M372.28,119.33h58a9.67,9.67,0,1,0,0-19.33h-58a9.67,9.67,0,0,0,0,19.33Z"/><path class="cls-1" d="M372.28,158h116a9.67,9.67,0,1,0,0-19.33h-116a9.67,9.67,0,0,0,0,19.33Z"/><path class="cls-1" d="M372.28,196.67h58a9.67,9.67,0,1,0,0-19.34h-58a9.67,9.67,0,0,0,0,19.34Z"/><path class="cls-1" d="M372.28,235.33h116a9.67,9.67,0,1,0,0-19.33h-116a9.67,9.67,0,0,0,0,19.33Z"/><path class="cls-1" d="M372.28,274h58a9.67,9.67,0,1,0,0-19.33h-58a9.67,9.67,0,0,0,0,19.33Z"/><path class="cls-1" d="M284.66,409.33h38.67a9.67,9.67,0,0,0,0-19.33H284.66a9.67,9.67,0,1,0,0,19.33Z"/><rect class="cls-1" x="70.12" y="112.13" width="46.77" height="204.01" rx="1.01" ry="1.01"/><rect class="cls-1" x="154.32" y="180.13" width="46.77" height="136" rx="1.04" ry="1.04"/><rect class="cls-1" x="238.51" y="228.7" width="46.77" height="87.43" rx="1.06" ry="1.06"/></svg>