<svg id="Layer_1" data-name="Layer 1" xmlns="http://www.w3.org/2000/svg" viewBox="0 0 600 600"><defs><style>.cls-1{fill:#2e0069;}</style></defs><title>R2</title><path class="cls-1" d="M588,60.33A48.3,48.3,0,0,0,495,42L352.15,68.74a57.9,57.9,0,0,0-108.47.44L103.8,51.69a48.29,48.29,0,1,0-57.13,56v118a48.19,48.19,0,0,0,3.95,95.11l38.05,60.87a57.89,57.89,0,0,0-26,95.66A67.76,67.76,0,0,0,8,543.67v38.66A9.66,9.66,0,0,0,17.67,592h174a9.66,9.66,0,0,0,9.66-9.67v-29H444a48.33,48.33,0,1,0,57-57V456.67h77.33A9.66,9.66,0,0,0,588,447V408.33a67.77,67.77,0,0,0-54.71-66.39A57.89,57.89,0,0,0,504,245.44l43-137.52A48.26,48.26,0,0,0,588,60.33Zm-48.33-29a29,29,0,1,1-29,29A29,29,0,0,1,539.67,31.33Zm-48.14,31A48.18,48.18,0,0,0,527.1,106.8l-43,137.7a58,58,0,0,0-42.13,27.26l-47.42-79a67.73,67.73,0,0,0-54.57-63.47A57.66,57.66,0,0,0,356,89.33c0-.55-.07-1.08-.09-1.62ZM397.4,389.43l-61.23-53.57a48.19,48.19,0,0,0-36.89-42.15L306.39,244H385a9.66,9.66,0,0,0,9.67-9.67v-3.77l39,65.06a58.45,58.45,0,0,0-.37,6.38,57.71,57.71,0,0,0,16.05,39.94A67.89,67.89,0,0,0,397.4,389.43Zm-287.2-9.82L72,318.5a48.13,48.13,0,0,0,32.11-39.95l97.22-64.83v20.61A9.66,9.66,0,0,0,211,244h75.85l-7,49.19a48.2,48.2,0,0,0-39.35,42.74l-84,75.56A58.08,58.08,0,0,0,110.2,379.61ZM269,147.33h58a48.39,48.39,0,0,1,48.33,48.34v29H220.67v-29A48.39,48.39,0,0,1,269,147.33Zm19.33,164.34a29,29,0,1,1-29,29A29,29,0,0,1,288.33,311.67ZM162.67,437.33c0-1.73-.11-3.43-.26-5.13l81.26-73.15a48.25,48.25,0,0,0,89.39-.24l55.2,48.3-189,120.26a67.77,67.77,0,0,0-52.65-50.09A57.7,57.7,0,0,0,162.67,437.33ZM298,50.67a38.67,38.67,0,1,1-38.67,38.66A38.71,38.71,0,0,1,298,50.67ZM103.35,71.12,240.06,88.21c0,.38-.06.75-.06,1.12a57.74,57.74,0,0,0,16.05,40,67.75,67.75,0,0,0-54.45,61l-99.89,66.6A48.39,48.39,0,0,0,66,225.64V107.69A48.41,48.41,0,0,0,103.35,71.12Zm-76-10.79a29,29,0,1,1,29,29A29,29,0,0,1,27.33,60.33Zm0,212.67a29,29,0,1,1,29,29A29,29,0,0,1,27.33,273Zm77.34,125.67A38.67,38.67,0,1,1,66,437.33,38.7,38.7,0,0,1,104.67,398.67Zm77.33,174H27.33v-29a48.4,48.4,0,0,1,48.34-48.34h58A48.39,48.39,0,0,1,182,543.67Zm338.33-29a29,29,0,1,1-29-29A29,29,0,0,1,520.33,543.67Zm-38.66-47.36A48.47,48.47,0,0,0,444,534H224.86L394.67,426V447a9.66,9.66,0,0,0,9.66,9.67h77.34Zm87-88v29H414v-29A48.38,48.38,0,0,1,462.33,360h58A48.39,48.39,0,0,1,568.67,408.33ZM530,302a38.67,38.67,0,1,1-38.67-38.67A38.71,38.71,0,0,1,530,302Z"/><path class="cls-1" d="M1339,488.66h179.6V186.58H1339Zm95.92-13.13A23.53,23.53,0,1,1,1458.4,452a23.39,23.39,0,0,1-23.53,23.52Zm-2.13-276.45a4.32,4.32,0,1,1-4.3,4.33,4.33,4.33,0,0,1,4.3-4.33Zm-25.8,14.49h51.61v4.14h-51.61Zm-39.12,19.06,122-.09V412c-46.69.27-98.83.46-122,.27Zm0,0"/></svg>