<svg id="Layer_1" data-name="Layer 1" xmlns="http://www.w3.org/2000/svg" viewBox="0 0 600 600"><defs><style>.cls-1{fill:#2e0069;}</style></defs><title>R3</title><path class="cls-1" d="M274.35,357.66a97.16,97.16,0,1,1,97.16-97.16A97.27,97.27,0,0,1,274.35,357.66Zm0-169.38a72.22,72.22,0,1,0,72.21,72.22A72.3,72.3,0,0,0,274.35,188.28Z"/><path class="cls-1" d="M394.06,510.86H154.63A23.86,23.86,0,0,1,130.8,487v-66a71.62,71.62,0,0,1,71.54-71.54H342.6l29-76.81V144a48.83,48.83,0,0,1,97.65,0V281.62a48.8,48.8,0,0,1-3.17,17.27L419.73,421.56c-.53,1.4-1.14,2.83-1.83,4.24V487A23.87,23.87,0,0,1,394.06,510.86ZM155.75,485.91H393V419.34l1.68-2.9a24.6,24.6,0,0,0,1.74-3.65l46.36-122.72a23.9,23.9,0,0,0,1.56-8.45V144a23.88,23.88,0,0,0-47.75,0V277.27l-36.69,97.2H202.34a46.64,46.64,0,0,0-46.59,46.59Z"/><path class="cls-1" d="M300,593C140.11,593,10,462.91,10,303S140.11,13,300,13,590,143.09,590,303,459.92,593,300,593Zm0-555C153.87,38,35,156.85,35,303s118.9,265,265,265,265.05-118.9,265.05-265S446.16,38,300,38Z"/><path class="cls-1" d="M675.89,488.66H855.48V186.58H675.89Zm95.92-13.13A23.53,23.53,0,1,1,795.33,452a23.39,23.39,0,0,1-23.52,23.52Zm-2.13-276.45a4.32,4.32,0,1,1-4.31,4.33,4.33,4.33,0,0,1,4.31-4.33Zm-25.81,14.49h51.62v4.14H743.87Zm-39.11,19.06,121.94-.09V412c-46.68.27-98.83.46-121.94.27Zm0,0"/></svg>