<svg id="Layer_1" data-name="Layer 1" xmlns="http://www.w3.org/2000/svg" viewBox="0 0 1732 388"><defs><style>.cls-1,.cls-4,.cls-5,.cls-7,.cls-9{fill:none;}.cls-1{stroke:#2e0069;stroke-width:10px;}.cls-1,.cls-4,.cls-5,.cls-9{stroke-miterlimit:10;}.cls-2{fill:red;}.cls-3{fill:#fff;}.cls-4{stroke:red;}.cls-5{stroke:#c00072;}.cls-6{fill:#c00072;}.cls-8{fill:#9d00b2;}.cls-9{stroke:#9d00b2;}.cls-10{fill:#5f00a7;}.cls-11{fill:#8000b1;}</style></defs><title>OA-4-in-1-h</title><circle class="cls-1" cx="378.93" cy="200" r="14.5"/><circle class="cls-1" cx="450.98" cy="200.5" r="14.5"/><line class="cls-1" x1="390.43" y1="200" x2="440.48" y2="200"/><circle class="cls-1" cx="828.99" cy="200" r="14.5"/><circle class="cls-1" cx="901.04" cy="200.5" r="14.5"/><line class="cls-1" x1="840.49" y1="200" x2="890.54" y2="200"/><circle class="cls-1" cx="1279.04" cy="200" r="14.5"/><circle class="cls-1" cx="1351.09" cy="200.5" r="14.5"/><line class="cls-1" x1="1290.54" y1="200" x2="1340.59" y2="200"/><circle class="cls-2" cx="189.93" cy="196.88" r="116.92"/><rect class="cls-3" x="187.39" y="123.37" width="5.07" height="15.21"/><rect class="cls-3" x="235.47" y="142.38" width="17.92" height="5.07" transform="translate(-30.88 215.28) rotate(-45)"/><rect class="cls-3" x="132.89" y="135.95" width="5.07" height="17.92" transform="translate(-62.8 138.2) rotate(-45)"/><path class="cls-3" d="M256.6,192.48a20.25,20.25,0,0,0-22.38-28.17A20.23,20.23,0,0,0,207,153a20.24,20.24,0,0,0-34.16,0,20.23,20.23,0,0,0-27.21,11.28,20.25,20.25,0,0,0-22.38,28.17,20.27,20.27,0,0,0,10.9,37.36h21.55v-5.07H134.16a15.2,15.2,0,0,1-6.42-29,2.57,2.57,0,0,0,1.35-1.57,2.53,2.53,0,0,0-.27-2.06,15.19,15.19,0,0,1,17.73-22.38,2.53,2.53,0,0,0,3.26-1.81,15.15,15.15,0,0,1,22.72-9.38,2.54,2.54,0,0,0,3.63-1.09,15.19,15.19,0,0,1,27.54,0,2.54,2.54,0,0,0,3.63,1.09A15.15,15.15,0,0,1,230.05,168a2.53,2.53,0,0,0,3.26,1.81A15.18,15.18,0,0,1,251,192.16a2.56,2.56,0,0,0-.26,2.06,2.54,2.54,0,0,0,1.35,1.57,15.2,15.2,0,0,1-6.42,29,2.54,2.54,0,0,0-2.54,2.53v10.62c-10-1.25-17.74-4.91-17.74-10.62a2.53,2.53,0,0,0-2.54-2.53h-13v5.07h10.59c.5,8.24,12.09,13.31,25.22,13.31a2.54,2.54,0,0,0,2.53-2.54V229.68a20.26,20.26,0,0,0,8.37-37.2Z"/><path class="cls-3" d="M164,270.09a2.47,2.47,0,0,0,1.2.31,2.53,2.53,0,0,0,2-1l40.56-53.24a2.53,2.53,0,0,0-2-4.07h-16L200.38,193a2.53,2.53,0,0,0-2.21-3.76H170.28a2.53,2.53,0,0,0-2.5,2.15l-5.07,32.95a2.53,2.53,0,0,0,2.5,2.92h11.63l-14,39.72a2.53,2.53,0,0,0,1.19,3.07Zm18.8-44.48a2.54,2.54,0,0,0-2.39-3.38H168.17l4.29-27.88h21.4L183.27,213.4a2.53,2.53,0,0,0,2.22,3.76h15.16L173,253.5Z"/><path class="cls-4" d="M319.63,122a149.5,149.5,0,1,0,20.1,74.88A149.88,149.88,0,0,0,319.63,122ZM304,276.79a139.08,139.08,0,1,1,25.25-79.91A139.3,139.3,0,0,1,304,276.79Z"/><circle class="cls-5" cx="639.86" cy="197.09" r="149.8"/><circle class="cls-5" cx="639.86" cy="197.09" r="139.36"/><path class="cls-6" d="M769.8,121.8A149.88,149.88,0,0,0,640.11,46.88V57.32A139.29,139.29,0,0,1,754.22,276.58l8.54,6a149.5,149.5,0,0,0,7-160.77Z"/><circle class="cls-6" cx="639.98" cy="196.88" r="116.92"/><path class="cls-3" d="M695.86,184.17l7.42-18.24c.83-2-.21-3.16-2.32-2.49l-7.37,2.35a71.81,71.81,0,0,0-135,45.87,72.84,72.84,0,0,0,5.24,15.55,71.79,71.79,0,0,0,95.47,34.55,47.83,47.83,0,0,0,7.13-3.84c2.93-2,6-3.84,3-8.27s-9.12-1.11-15,1.66a60.25,60.25,0,0,1-80.11-29,60.23,60.23,0,0,1,108.18-53l-7.64,2.44c-2.11.67-2.31,2.19-.45,3.37L691,185.73a3.22,3.22,0,0,0,4.89-1.56Z"/><rect class="cls-7" x="556.99" y="124.92" width="165.98" height="143.92"/><path class="cls-3" d="M625.07,155v41.51l-28.16,23a4.67,4.67,0,0,0,3,8.29,4.62,4.62,0,0,0,2.95-1.05l31.61-25.77V155a4.68,4.68,0,0,0-9.35,0Z"/><path class="cls-3" d="M704,200a18.54,18.54,0,0,0-13.16,5.41l-6.05,5.8-6-5.71a18.72,18.72,0,1,0-.08,26.55l6.05-5.8,6,5.71A18.72,18.72,0,1,0,704,200Zm-32.83,24.3a8.07,8.07,0,0,1-11.15,0,7.89,7.89,0,0,1,5.57-13.46,7.92,7.92,0,0,1,5.66,2.39l5.72,5.5Zm38.4,0a8,8,0,0,1-11.23-.08l-5.72-5.5,5.8-5.57a8.06,8.06,0,0,1,11.15,0,7.89,7.89,0,0,1,0,11.16Zm0,0"/><circle class="cls-8" cx="1090.04" cy="196.88" r="116.92"/><path class="cls-9" d="M1090,346.68c-82.6,0-149.8-67.2-149.8-149.8S1007.44,47.09,1090,47.09s149.8,67.19,149.8,149.79S1172.64,346.68,1090,346.68Zm0-289.16c-76.84,0-139.36,62.52-139.36,139.36S1013.2,336.24,1090,336.24s139.36-62.51,139.36-139.36S1166.88,57.52,1090,57.52Z"/><path class="cls-8" d="M1219.74,122A149.88,149.88,0,0,0,1090,47.09V57.52a139.39,139.39,0,1,1-128.11,84.53l-9.59-4.12A149.81,149.81,0,1,0,1219.74,122Z"/><path class="cls-3" d="M1017.28,124.12h26v-5.19h-28.58a2.59,2.59,0,0,0-2.6,2.59v28.59h5.2Z"/><path class="cls-3" d="M1168,150.11V121.52a2.6,2.6,0,0,0-2.6-2.59h-28.59v5.19h26v26Z"/><path class="cls-3" d="M1014.68,274.84h28.58v-5.2h-26v-26h-5.2v28.58A2.59,2.59,0,0,0,1014.68,274.84Z"/><path class="cls-3" d="M1136.81,269.64v5.2h28.59a2.6,2.6,0,0,0,2.6-2.6V243.66h-5.2v26Z"/><path class="cls-3" d="M1087.44,269.58v5.26h5.2v-5.26a72.84,72.84,0,0,0,70.1-70.1H1168v-5.2h-5.26a72.83,72.83,0,0,0-70.1-70.09v-5.26h-5.2v5.26a72.83,72.83,0,0,0-70.1,70.09h-5.26v5.2h5.26A72.84,72.84,0,0,0,1087.44,269.58Zm-35.39-82.07,9.28,5.58c-1,6.36-8.88,11.59-12.87,11.59a16.38,16.38,0,0,1-12.63-10.53C1040.28,193.78,1048.31,192.43,1052.05,187.51Zm-16.44,1.43c.7-8.71,4.8-12.85,12.85-12.85,7.38,0,11.44,3.49,12.6,10.77l-8.66-5.2a2.6,2.6,0,0,0-3.57.89,3,3,0,0,0-.23.52c-1.32,3.94-8.42,5.43-13,5.87Zm12.85,25.33,2.15,5.37-2.15,2.15-2.14-2.15Zm-3.84-4.39-3.77,9.42a2.61,2.61,0,0,0,.58,2.81l5.2,5.2a2.6,2.6,0,0,0,3.67,0l5.2-5.2a2.61,2.61,0,0,0,.58-2.81l-3.78-9.42h5.78a8.57,8.57,0,0,1,8.57,8.57v17.41h-31.74a67.65,67.65,0,0,1-4.64-7.53v-9.88a8.58,8.58,0,0,1,8.58-8.57Zm49-38,9.29,5.58c-1,6.36-8.88,11.59-12.87,11.59a16.37,16.37,0,0,1-12.63-10.53C1081.86,178.19,1089.89,176.84,1093.62,171.92Zm-16.43,1.43c.7-8.71,4.79-12.85,12.85-12.85,7.37,0,11.43,3.49,12.59,10.77l-8.65-5.2a2.62,2.62,0,0,0-3.81,1.4c-1.31,3.95-8.41,5.44-13,5.88ZM1090,198.68l2.15,5.37L1090,206.2l-2.15-2.15Zm-3.84-4.4-3.77,9.43a2.6,2.6,0,0,0,.58,2.81l5.19,5.19a2.6,2.6,0,0,0,3.68,0l5.2-5.19a2.61,2.61,0,0,0,.57-2.81l-3.77-9.43h5.77a8.58,8.58,0,0,1,8.58,8.58v17.41h-36.38V202.86a8.58,8.58,0,0,1,8.57-8.58Zm49-6.77,9.29,5.58c-1,6.36-8.88,11.59-12.87,11.59A16.37,16.37,0,0,1,1119,194.15c4.44-.37,12.48-1.72,16.21-6.64Zm-16.43,1.43c.69-8.71,4.79-12.85,12.85-12.85,7.37,0,11.43,3.49,12.59,10.77l-8.66-5.2a2.59,2.59,0,0,0-3.56.89,2.45,2.45,0,0,0-.24.52c-1.31,3.94-8.41,5.43-13,5.87Zm12.85,25.33,2.14,5.37-2.14,2.15-2.15-2.15Zm-3.84-4.39L1124,219.3a2.6,2.6,0,0,0,.58,2.81l5.19,5.2a2.61,2.61,0,0,0,3.68,0l5.19-5.2a2.6,2.6,0,0,0,.58-2.81l-3.77-9.42h5.77a8.58,8.58,0,0,1,8.58,8.57v9.88a67.65,67.65,0,0,1-4.64,7.53h-31.74V218.45a8.57,8.57,0,0,1,8.57-8.57Zm-35.14,54.5v-5.13h-5.2v5.13A67.43,67.43,0,0,1,1039,241.06h30.27a2.59,2.59,0,0,0,2.6-2.6v-13h36.38v13a2.59,2.59,0,0,0,2.6,2.6h30.26A67.39,67.39,0,0,1,1092.64,264.38Zm-5.2-135v5.14h5.2v-5.14a67.64,67.64,0,0,1,64.9,64.9h-5.13v5.2h5.13a67.33,67.33,0,0,1-2.75,16.67A13.66,13.66,0,0,0,1143,204.81a18,18,0,0,0,6.86-13.12c0-17.19-9.9-20.79-18.19-20.79s-18.19,3.6-18.19,20.79a18,18,0,0,0,6.85,13.12,13.84,13.84,0,0,0-5.92,2.18c-.33.23-.63.47-.93.72v-4.85a13.73,13.73,0,0,0-12-13.65,18.05,18.05,0,0,0,6.85-13.12c0-17.18-9.89-20.78-18.19-20.78s-18.19,3.6-18.19,20.78a18,18,0,0,0,6.85,13.12,13.73,13.73,0,0,0-12,13.65v4.84a11.12,11.12,0,0,0-.94-.72,13.8,13.8,0,0,0-5.91-2.18,18,18,0,0,0,6.85-13.11c0-17.19-9.89-20.79-18.19-20.79s-18.19,3.6-18.19,20.79a18.07,18.07,0,0,0,6.85,13.12,13.66,13.66,0,0,0-11.83,11.34,67.33,67.33,0,0,1-2.75-16.67h5.13v-5.2h-5.13A67.64,67.64,0,0,1,1087.44,129.38Z"/><path class="cls-10" d="M1669.79,122a149.5,149.5,0,1,0,20.1,74.88A149.87,149.87,0,0,0,1669.79,122Zm-15.58,154.79a139.14,139.14,0,1,1,25.24-79.91A139.33,139.33,0,0,1,1654.21,276.79Z"/><circle class="cls-11" cx="1540.09" cy="196.88" r="116.92"/><path class="cls-3" d="M1499.52,194.49a13,13,0,0,0,1.22-5.48,13.12,13.12,0,1,0-26.23,0,12.82,12.82,0,0,0,1.22,5.48,17.16,17.16,0,0,0-14.34,16.91v24.84a2.62,2.62,0,0,0,2.62,2.62h7.87V273a2.62,2.62,0,0,0,2.62,2.62h26.24a2.62,2.62,0,0,0,2.62-2.62h0V238.86h7.88a2.62,2.62,0,0,0,2.62-2.62h0V211.4A17.16,17.16,0,0,0,1499.52,194.49Zm9.09,39.12h-5.25V207.38h-5.24v63h-7.87V233.61H1485v36.73h-7.87v-63h-5.25v26.23h-5.25V211.4a11.91,11.91,0,0,1,11.9-11.89h2.22a2.62,2.62,0,0,0,1.72-4.6,7.77,7.77,0,0,1-2.72-5.9,7.87,7.87,0,0,1,15.74,0,7.74,7.74,0,0,1-2.72,5.9,2.62,2.62,0,0,0,1.73,4.6h2.22a11.9,11.9,0,0,1,11.89,11.89Z"/><path class="cls-3" d="M1579.45,141.79a2.63,2.63,0,0,0,5.25,0,7.87,7.87,0,0,1,7.87-7.87,2.63,2.63,0,0,0,0-5.25,7.87,7.87,0,0,1-7.87-7.87,2.63,2.63,0,0,0-5.25,0,7.88,7.88,0,0,1-7.87,7.87,2.63,2.63,0,1,0,0,5.25A7.88,7.88,0,0,1,1579.45,141.79Zm2.62-13.13a13.37,13.37,0,0,0,2.63,2.63,13.65,13.65,0,0,0-2.63,2.63,13.37,13.37,0,0,0-2.63-2.63A13.11,13.11,0,0,0,1582.07,128.66Z"/><path class="cls-3" d="M1616.18,257.23h-10.5v-7.88a2.62,2.62,0,0,0-2.62-2.62h-5.25V184.46l20.65-36.12a2.63,2.63,0,0,0-.83-3.49l-7.87-5.24a2.61,2.61,0,0,0-3.72.86l-11.75,20.15a13.12,13.12,0,0,0-24.43,0l-11.76-20.15a2.61,2.61,0,0,0-3.58-.95l-.14.09-7.87,5.24a2.62,2.62,0,0,0-.82,3.49l20.64,36.12v62.27h-5.25a2.62,2.62,0,0,0-2.62,2.62h0v7.88H1548a2.62,2.62,0,0,0-2.63,2.62h0v15.74h5.25V262.47h10.49a2.62,2.62,0,0,0,2.63-2.62h0V252h36.73v7.87a2.62,2.62,0,0,0,2.62,2.62h10.5v13.12h5.24V259.85a2.62,2.62,0,0,0-2.62-2.62Zm-23.61-73.46v63h-7.87V215.25h-5.25v31.48h-7.87v-63a2.62,2.62,0,0,0-.35-1.31l-19.77-34.6,3.51-2.34,17,29.07a2.61,2.61,0,0,0,2.26,1.3h1a2.62,2.62,0,0,0,1.72-4.59,7.79,7.79,0,0,1-2.72-5.9,7.87,7.87,0,0,1,15.74,0,7.75,7.75,0,0,1-2.72,5.9,2.62,2.62,0,0,0,1.73,4.59h1a2.61,2.61,0,0,0,2.27-1.3l17-29.07,3.52,2.34-19.78,34.6A2.72,2.72,0,0,0,1592.57,183.77Z"/><rect class="cls-3" x="1534.85" y="178.52" width="5.25" height="5.25"/><rect class="cls-3" x="1545.34" y="183.77" width="5.25" height="5.25"/><rect class="cls-3" x="1555.84" y="189.01" width="5.25" height="5.25"/><rect class="cls-3" x="1534.85" y="196.88" width="5.25" height="5.25"/><rect class="cls-3" x="1545.34" y="202.13" width="5.25" height="5.25"/><rect class="cls-3" x="1555.84" y="207.38" width="5.25" height="5.25"/><rect class="cls-3" x="1603.06" y="204.75" width="5.25" height="5.25"/><rect class="cls-3" x="1613.56" y="210" width="5.25" height="5.25"/><rect class="cls-3" x="1603.06" y="223.12" width="5.25" height="5.25"/><rect class="cls-3" x="1613.56" y="228.37" width="5.25" height="5.25"/><path class="cls-3" d="M1537.47,144.41a2.63,2.63,0,0,0-1-2l-15.81-13.12a2.63,2.63,0,0,0-4.3,2l0,5.22h-34.08a2.62,2.62,0,0,0-2.63,2.62h0V165.4a2.62,2.62,0,0,0,2.62,2.62h10.5a2.62,2.62,0,0,0,2.62-2.62h0V152.28h21v5.25a2.62,2.62,0,0,0,2.63,2.62,2.66,2.66,0,0,0,1.68-.6l15.74-13.12A2.62,2.62,0,0,0,1537.47,144.41Zm-15.74,7.52v-2.27a2.62,2.62,0,0,0-2.62-2.62h-26.24a2.61,2.61,0,0,0-2.62,2.62h0v13.12H1485v-21h34.11a2.62,2.62,0,0,0,2.62-2.62v0l0-2.22,9,7.5Z"/></svg>