<svg id="Layer_1" data-name="Layer 1" xmlns="http://www.w3.org/2000/svg" viewBox="0 0 600 600"><defs><style>.cls-1{fill:#2e0069;}</style></defs><title>MS1</title><path class="cls-1" d="M542.23,217.28H341.43a168,168,0,0,0,4.34-37.42c0-92.85-75.54-168.39-168.38-168.39S9,87,9,179.86a167.22,167.22,0,0,0,9.75,55.92A46.31,46.31,0,0,0,9,264.05V544.7a46.82,46.82,0,0,0,46.77,46.77H542.23A46.82,46.82,0,0,0,589,544.7V264.05A46.82,46.82,0,0,0,542.23,217.28ZM495.45,236V572.76H83.84v-253a166,166,0,0,0,18.71,10.7v8.42h18.71v-.46a165.36,165.36,0,0,0,102.9,3.07V395h18.71V357.6h37.42V338.89H232.23A169,169,0,0,0,336,236ZM177.39,30.18c82.53,0,149.67,67.15,149.67,149.68S259.92,329.54,177.39,329.54,27.71,262.39,27.71,179.86,94.86,30.18,177.39,30.18ZM27.71,544.7V264.05a28.32,28.32,0,0,1,.68-6A169,169,0,0,0,65.13,305V572.76H55.77A28.09,28.09,0,0,1,27.71,544.7Zm542.58,0a28.09,28.09,0,0,1-28.06,28.06H514.16V236h28.07a28.09,28.09,0,0,1,28.06,28.06Z"/><rect class="cls-1" x="532.87" y="357.6" width="18.71" height="93.55"/><polygon class="cls-1" points="458.03 338.89 476.74 338.89 476.74 254.7 392.55 254.7 392.55 273.41 458.03 273.41 458.03 338.89"/><rect class="cls-1" x="458.03" y="469.86" width="18.71" height="18.71"/><polygon class="cls-1" points="476.74 507.28 458.03 507.28 458.03 535.35 392.55 535.35 392.55 554.05 476.74 554.05 476.74 507.28"/><polygon class="cls-1" points="121.26 469.86 102.55 469.86 102.55 554.05 186.74 554.05 186.74 535.35 121.26 535.35 121.26 469.86"/><polygon class="cls-1" points="336.42 451.15 299 451.15 299 469.86 355.13 469.86 355.13 413.73 336.42 413.73 336.42 451.15"/><polygon class="cls-1" points="242.87 413.73 224.16 413.73 224.16 469.86 280.29 469.86 280.29 451.15 242.87 451.15 242.87 413.73"/><polygon class="cls-1" points="336.42 395.02 355.13 395.02 355.13 338.89 299 338.89 299 357.6 336.42 357.6 336.42 395.02"/><polygon class="cls-1" points="280.29 376.31 280.29 395.02 261.58 395.02 261.58 413.73 280.29 413.73 280.29 432.44 299 432.44 299 413.73 317.71 413.73 317.71 395.02 299 395.02 299 376.31 280.29 376.31"/><polygon class="cls-1" points="220.69 114.83 233.92 101.6 174.39 42.07 114.86 101.6 128.09 114.83 174.39 68.53 220.69 114.83"/><polygon class="cls-1" points="220.69 246.56 233.92 259.79 174.39 319.32 114.86 259.79 128.09 246.56 174.39 292.86 220.69 246.56"/><polygon class="cls-1" points="240.25 227 253.48 240.23 313.01 180.7 253.48 121.16 240.25 134.39 286.56 180.7 240.25 227"/><polygon class="cls-1" points="108.53 227 95.3 240.23 35.76 180.7 95.3 121.16 108.53 134.39 62.22 180.7 108.53 227"/></svg>