<svg id="Layer_1" data-name="Layer 1" xmlns="http://www.w3.org/2000/svg" viewBox="0 0 600 600"><defs><style>.cls-1{fill:#2e0069;}</style></defs><title>MS2</title><path class="cls-1" d="M54.1,507.89c13.73,3.61,29.62,2.16,46.24-5.06,28.17-11.56,60.68-36.12,92.47-65.74C215.2,415.42,257.1,404.58,299,404.58s83.8,10.84,106.19,32.51c31.79,29.62,64.3,54.18,92.47,65.74,16.62,6.5,32.51,8.67,46.24,5.06,14.45-4.34,26.73-14.45,34.67-33.23,7.95-18.06,11.56-44.79,10.12-82.36-1.45-33.23-7.23-70.07-15.89-104.75-8.67-33.23-19.51-64.29-32.51-88.13-50.57-88.86-105.48-75.14-171.22-57.8-20.95,5.06-43.34,10.84-66.46,13h-7.22c-23.12-2.17-45.51-7.95-66.46-13C163.19,125,108.28,110.56,57.71,200.14,44.71,224,33.15,255,25.2,288.27,16.54,323,10.76,359.79,9.31,393c-1.44,36.85,2.17,63.58,10.12,82.36Q31.34,501.39,54.1,507.89ZM36,393.75a498.59,498.59,0,0,1,15.17-99.7c7.95-31.06,18.06-60,30.34-81.63,39.74-71.52,86-60,140.87-45.51,22.4,5.78,45.52,11.56,70.8,13.72h10.84c26-2.16,49.12-7.94,71.52-13.72,54.9-13.73,101.13-26,140.87,45.51,12.28,21.67,22.39,49.85,30.34,81.63,7.94,33.23,13.72,67.91,15.17,99.7,1.44,33.23-1.45,55.62-8,70.79-4.33,10.12-10.11,15.9-17.34,18.06-7.94,2.17-18.06.73-29.61-3.61-25.29-10.11-54.91-32.51-83.8-60C395.8,391.58,347.4,377.85,299,377.85s-96.8,13.73-125,39.74c-29.62,27.45-59.24,50.56-83.8,60-11.56,4.33-21.67,6.5-29.62,3.61-7.22-2.17-13-8-17.33-18.06C37.49,449.37,34.6,427,36,393.75Z"/><path class="cls-1" d="M122.73,323A38.58,38.58,0,0,0,135,349a41,41,0,0,0,29.62,12.28h0A42.66,42.66,0,0,0,194.25,349h0c6.5-7.23,11.56-15.9,12.28-26a38.56,38.56,0,0,0,26-12.28,41,41,0,0,0,12.28-29.62h0a42.66,42.66,0,0,0-12.28-29.62h0c-7.23-6.5-15.9-11.56-26-12.28A41.14,41.14,0,0,0,195,213.86l-.72-.72a41,41,0,0,0-29.62-12.28h0A42.68,42.68,0,0,0,135,213.14c-6.5,6.5-11.56,15.9-12.28,26-10.11.72-18.78,5.06-26,11.56l-.72.72a40.91,40.91,0,0,0-12.28,29.62h0A42.68,42.68,0,0,0,96,310.67,40.29,40.29,0,0,0,122.73,323Zm-12.28-41.9a14.7,14.7,0,0,1,4.33-10.84l.73-.72a17.23,17.23,0,0,1,10.11-3.61h10.11a13.72,13.72,0,0,0,13.73-13.73V242a14.8,14.8,0,0,1,15.17-15.17h0a14.7,14.7,0,0,1,10.84,4.33l.72.72A17.26,17.26,0,0,1,179.8,242v10.11a13.72,13.72,0,0,0,13.73,13.73h10.11a14.7,14.7,0,0,1,10.84,4.33h0a14.7,14.7,0,0,1,4.33,10.84h0a14.8,14.8,0,0,1-15.17,15.17H193.53A13.72,13.72,0,0,0,179.8,310v9.39a14.69,14.69,0,0,1-4.33,10.83h0a14.71,14.71,0,0,1-10.84,4.34h0a14.82,14.82,0,0,1-15.17-15.17V309.22a13.72,13.72,0,0,0-13.73-13.72H125.62a14.82,14.82,0,0,1-15.17-14.45Z"/><circle class="cls-1" cx="424.7" cy="229.76" r="25.28"/><circle class="cls-1" cx="424.7" cy="332.34" r="25.28"/><circle class="cls-1" cx="373.41" cy="281.05" r="25.28"/><circle class="cls-1" cx="475.99" cy="281.05" r="25.28"/></svg>