<svg id="Layer_1" data-name="Layer 1" xmlns="http://www.w3.org/2000/svg" viewBox="0 0 600 600"><defs><style>.cls-1{fill:#2e0069;}</style></defs><title>MS3</title><path class="cls-1" d="M202.23,440l-.35-.08A66.63,66.63,0,0,0,219,395.31V345.09a53.68,53.68,0,0,0-53.62-53.62H96.52A11.33,11.33,0,0,0,85.19,302.8v92.51a66.58,66.58,0,0,0,17.07,44.57l-.35.08a96.45,96.45,0,0,0-87.42,95.9v45.61A11.33,11.33,0,0,0,25.82,592.8h252.5a11.34,11.34,0,0,0,11.33-11.33V535.86A96.45,96.45,0,0,0,202.23,440Zm-94.38-64.91a43.09,43.09,0,0,0,20.74,5.29h67.7v15a44.22,44.22,0,0,1-88.44,0V375.05Zm64,87.14-19.74,19.75-19.75-19.75Zm-64-148.07h57.48a31,31,0,0,1,31,31v12.59h-67.7a20.76,20.76,0,0,1-20.74-20.74V314.12ZM267,570.14H37.15V535.86a73.75,73.75,0,0,1,63.81-73l43.1,43.1a11.32,11.32,0,0,0,16,0l43.1-43.1a73.76,73.76,0,0,1,63.81,73v34.28Z"/><path class="cls-1" d="M519.81,448.35a47.49,47.49,0,0,0,14.11-33.81V368.48a77,77,0,0,0-33.07-63.19,11.45,11.45,0,0,0,.28-2.49V275.86a53.84,53.84,0,0,0,47-53.34V109A53.83,53.83,0,0,0,494.4,55.23H318.28A53.83,53.83,0,0,0,264.52,109V222.52a53.83,53.83,0,0,0,53.76,53.76h129l15.42,15.43c-1.91-.15-3.83-.24-5.78-.24a77.1,77.1,0,0,0-77,77v46A47.5,47.5,0,0,0,394,448.35a96.13,96.13,0,0,0-55.89,87.21v45.91a11.33,11.33,0,0,0,11.33,11.33H564.37a11.33,11.33,0,0,0,11.33-11.33V535.56A96.15,96.15,0,0,0,519.81,448.35ZM452,253.63H318.28a31.15,31.15,0,0,1-31.11-31.11V109a31.15,31.15,0,0,1,31.11-31.11H494.4A31.15,31.15,0,0,1,525.51,109v.61H453.64a11.33,11.33,0,0,0,0,22.66h71.87v90.25a31.15,31.15,0,0,1-31.11,31.11h-4.6A11.33,11.33,0,0,0,478.47,265v10.49L460,257A11.29,11.29,0,0,0,452,253.63Zm-24.4,185.9a25,25,0,0,1-25-25V368.48a54.36,54.36,0,1,1,108.71,0v46a25,25,0,0,1-25,25H427.56ZM553,570.14H360.78V535.56a73.45,73.45,0,0,1,73.37-73.37h45.53A73.45,73.45,0,0,1,553,535.56v34.58Z"/><path class="cls-1" d="M107.85,233.43v26.93a11.31,11.31,0,0,0,7,10.46,11.13,11.13,0,0,0,4.33.87,11.31,11.31,0,0,0,8-3.32l34.52-34.52h58.87a11.33,11.33,0,0,0,0-22.66H157a11.32,11.32,0,0,0-8,3.32L130.51,233V222.52a11.33,11.33,0,0,0-11.33-11.33h-4.6a31.14,31.14,0,0,1-31.11-31.11V66.56a31.15,31.15,0,0,1,31.11-31.11H246.34a11.33,11.33,0,1,0,0-22.65H114.58A53.83,53.83,0,0,0,60.82,66.56V180.08A53.84,53.84,0,0,0,107.85,233.43Z"/><path class="cls-1" d="M290.71,35.45a11.35,11.35,0,1,0-8-3.32A11.4,11.4,0,0,0,290.71,35.45Z"/><path class="cls-1" d="M406.34,109.61a11.34,11.34,0,1,0,8,3.32A11.41,11.41,0,0,0,406.34,109.61Z"/></svg>