<svg id="Layer_1" data-name="Layer 1" xmlns="http://www.w3.org/2000/svg" viewBox="0 0 600 600"><defs><style>.cls-1{fill:#2e0069;}</style></defs><title>MS4</title><path class="cls-1" d="M295.5,243a33,33,0,1,0,32.95,33A33,33,0,0,0,295.5,243Zm0,55.75a22.8,22.8,0,1,1,22.8-22.8A22.82,22.82,0,0,1,295.5,298.72Z"/><path class="cls-1" d="M354.1,242.74l11.6-11.61-25.41-25.41-11.61,11.6A66.57,66.57,0,0,0,313.47,211v-16.4H277.53V211a66.83,66.83,0,0,0-15.22,6.31l-11.6-11.6L225.3,231.13l11.6,11.61A66.57,66.57,0,0,0,230.59,258h-16.4v35.94h16.4a66.83,66.83,0,0,0,6.31,15.22l-11.6,11.6,25.41,25.41,11.6-11.6a66.83,66.83,0,0,0,15.22,6.31v16.4h35.94v-16.4a66.57,66.57,0,0,0,15.21-6.31l11.61,11.6,25.41-25.41-11.6-11.6a66.35,66.35,0,0,0,6.3-15.22h16.41V258H360.4A66.09,66.09,0,0,0,354.1,242.74Zm12.56,41H352.3l-.85,4a56.58,56.58,0,0,1-8,19.33l-2.25,3.45,10.16,10.16-11.06,11.06-10.16-10.16-3.45,2.25a56.69,56.69,0,0,1-19.33,8l-4,.85v14.36H287.68V332.73l-4-.85a56.6,56.6,0,0,1-19.33-8l-3.45-2.25-10.16,10.16-11.06-11.06,10.16-10.16-2.25-3.45a56.6,56.6,0,0,1-8-19.33l-.85-4H224.34V268.1h14.35l.85-4a56.69,56.69,0,0,1,8-19.33l2.25-3.45-10.16-10.16,11.06-11.06,10.16,10.16,3.45-2.25a56.58,56.58,0,0,1,19.33-8l4-.85V204.76h15.64v14.36l4,.85a56.67,56.67,0,0,1,19.33,8l3.45,2.25,10.16-10.16,11.06,11.06-10.16,10.16,2.25,3.45a56.67,56.67,0,0,1,8,19.33l.85,4h14.36v15.64Z"/><path class="cls-1" d="M457.14,279.14H444.48V199.37h8.44V170.8h-27v28.57h8.44c0,25.9,0,65.81,0,79.77h-12.1v17.77h-5.75v84.14h45.83V296.91h-5.18ZM436,180.94h6.73v8.28H436Zm-3.65,108.35H447v7.62h-14.6Zm19.78,81.61H426.64V307.06h25.53Z"/><path class="cls-1" d="M168.89,171.19l-7-3V198.6l-5.72,3.28-5.72-3.28V168.23l-7,3a32.92,32.92,0,0,0-6.07,57.34v134a18.26,18.26,0,0,0,18,18.47,17.72,17.72,0,0,0,14.09-7,18.77,18.77,0,0,0,3.91-11.49v-133a32.92,32.92,0,0,0-4.41-58.43ZM166.2,222a38.64,38.64,0,0,1-11.39,2.12v10.15a41.48,41.48,0,0,0,8.35-.94V362.58a8.53,8.53,0,0,1-1.78,5.27,7.69,7.69,0,0,1-6.08,3,8.1,8.1,0,0,1-7.85-8.32V222.79l-2.56-1.46a22.77,22.77,0,0,1-4.63-36.13v19.28l15.87,9.1,15.87-9.1V185.2A22.78,22.78,0,0,1,166.2,222Z"/><path class="cls-1" d="M301.35,102.85H71.16V437.38H526.84V102.85ZM511,412.3H87V118.58H511Z"/><polygon class="cls-1" points="537.26 458.08 301.35 458.08 296.65 458.08 60.74 458.08 9 468.42 9 509.82 296.65 509.82 301.35 509.82 589 509.82 589 468.42 537.26 458.08"/></svg>