<svg id="Layer_1" data-name="Layer 1" xmlns="http://www.w3.org/2000/svg" viewBox="0 0 600 600"><defs><style>.cls-1{fill:#2e0069;}</style></defs><title>R4</title><polygon class="cls-1" points="212.21 378.64 212.21 409.77 539.98 409.77 539.98 107.34 123.78 107.34 123.78 165.97 154.91 165.97 154.91 138.48 508.77 138.48 508.77 378.64 212.21 378.64"/><path class="cls-1" d="M6.82,488.66h179.6V186.58H6.82Zm95.92-13.13A23.53,23.53,0,1,1,126.27,452a23.38,23.38,0,0,1-23.53,23.52Zm-2.13-276.45a4.32,4.32,0,1,1-4.3,4.33,4.32,4.32,0,0,1,4.3-4.33ZM74.8,213.57h51.62v4.14H74.8ZM35.69,232.63l122-.09V412c-46.69.27-98.84.46-121.95.27Zm0,0"/><polygon class="cls-1" points="595.18 488.65 595.18 451.24 548.4 441.88 211.63 441.88 211.63 488.65 595.18 488.65"/></svg>