<?xml version="1.0" encoding="utf-8"?>
<!-- Generator: Adobe Illustrator 24.0.2, SVG Export Plug-In . SVG Version: 6.00 Build 0)  -->
<svg version="1.1" id="Capa_1" xmlns="http://www.w3.org/2000/svg" xmlns:xlink="http://www.w3.org/1999/xlink" x="0px" y="0px"
	 viewBox="0 0 512 512" style="enable-background:new 0 0 512 512;" xml:space="preserve">
<style type="text/css">
	.st0{fill:#2E0069;}
</style>
<g>
	<g>
		<path class="st0" d="M457.8,24.6H54.2C24.3,24.6,0,48.9,0,78.8v221.5v34.5c0,29.9,24.3,54.2,54.2,54.2h130.8l-15.8,78.8h-51
			c-5.4,0-9.8,4.4-9.8,9.8s4.4,9.8,9.8,9.8h275.7c5.4,0,9.8-4.4,9.8-9.8s-4.4-9.8-9.8-9.8h-51l-15.8-78.8h130.8
			c29.9,0,54.2-24.3,54.2-54.2v-34.5V78.8C512,48.9,487.7,24.6,457.8,24.6z M189.2,467.7l15.8-78.8h102l15.8,78.8L189.2,467.7
			L189.2,467.7z M492.3,334.8c0,19-15.5,34.5-34.5,34.5H54.2c-19,0-34.5-15.5-34.5-34.5v-24.6h472.6L492.3,334.8L492.3,334.8z
			 M492.3,290.5H19.7v-19.7h59.1c5.4,0,9.8-4.4,9.8-9.8c0-5.4-4.4-9.8-9.8-9.8H19.7V78.8c0-19,15.5-34.5,34.5-34.5h403.7
			c19,0,34.5,15.5,34.5,34.5L492.3,290.5L492.3,290.5z"/>
	</g>
</g>
<g>
	<g>
		<path class="st0" d="M256,320c-10.9,0-19.7,8.8-19.7,19.7s8.8,19.7,19.7,19.7s19.7-8.8,19.7-19.7S266.9,320,256,320z"/>
	</g>
</g>
<g>
	<g>
		<path class="st0" d="M336.6,213.2l-20.9-20.9l17.4-17.4c2.5-2.5,3.5-6.2,2.5-9.7c-1-3.4-3.8-6.1-7.3-6.9l-90.5-20.9
			c-3.3-0.8-6.8,0.2-9.2,2.6c-2.4,2.4-3.4,5.9-2.6,9.2l20.9,90.5c0.8,3.5,3.4,6.3,6.9,7.3c3.4,1,7.1,0,9.7-2.5l17.4-17.4l20.9,20.9
			c1.9,1.9,4.4,2.9,7,2.9s5-1,7-2.9l20.9-20.9C340.5,223.3,340.5,217,336.6,213.2z M308.8,227.1l-20.9-20.9c-1.9-1.9-4.4-2.9-7-2.9
			s-5,1-7,2.9L262.1,218l-13.4-57.8l57.8,13.3l-11.8,11.8c-3.8,3.8-3.8,10.1,0,13.9l20.9,20.9L308.8,227.1z"/>
	</g>
</g>
<g>
	<g>
		<path class="st0" d="M215.5,112.9l-9.8-9.8c-3.8-3.8-10.1-3.8-13.9,0s-3.8,10.1,0,13.9l9.8,9.8c1.9,1.9,4.4,2.9,7,2.9s5-1,7-2.9
			C219.3,123,219.3,116.8,215.5,112.9z"/>
	</g>
</g>
<g>
	<g>
		<path class="st0" d="M196.3,139.6h-13.9c-5.4,0-9.8,4.4-9.8,9.8c0,5.4,4.4,9.8,9.8,9.8h13.9c5.4,0,9.8-4.4,9.8-9.8
			C206.1,144,201.7,139.6,196.3,139.6z"/>
	</g>
</g>
<g>
	<g>
		<path class="st0" d="M215.5,172c-3.8-3.8-10.1-3.8-13.9,0l-9.8,9.8c-3.8,3.8-3.8,10.1,0,13.9c1.9,1.9,4.4,2.9,7,2.9s5-1,7-2.9
			l9.8-9.8C219.3,182.1,219.3,175.9,215.5,172z"/>
	</g>
</g>
<g>
	<g>
		<path class="st0" d="M284.4,103.1c-3.8-3.8-10.1-3.8-13.9,0l-9.8,9.8c-3.8,3.8-3.8,10.1,0,13.9c1.9,1.9,4.4,2.9,7,2.9
			c2.5,0,5-1,7-2.9l9.8-9.8C288.2,113.2,288.2,106.9,284.4,103.1z"/>
	</g>
</g>
<g>
	<g>
		<path class="st0" d="M238,83.9c-5.4,0-9.8,4.4-9.8,9.8v13.9c0,5.4,4.4,9.8,9.8,9.8c5.4,0,9.8-4.4,9.8-9.8V93.7
			C247.9,88.3,243.5,83.9,238,83.9z"/>
	</g>
</g>
<g>
	<g>
		<path class="st0" d="M118,259c-0.1-0.6-0.3-1.3-0.6-1.9c-0.2-0.6-0.6-1.2-0.9-1.7c-0.4-0.5-0.8-1-1.2-1.5c-0.5-0.5-1-0.9-1.5-1.2
			c-0.5-0.4-1.1-0.7-1.7-0.9c-0.6-0.2-1.2-0.4-1.8-0.6c-1.3-0.3-2.6-0.3-3.8,0c-0.6,0.1-1.3,0.3-1.8,0.6c-0.6,0.2-1.2,0.6-1.7,0.9
			c-0.5,0.4-1,0.8-1.5,1.2c-0.5,0.5-0.9,1-1.2,1.5c-0.4,0.5-0.7,1.1-0.9,1.7c-0.2,0.6-0.4,1.2-0.6,1.9c-0.1,0.6-0.2,1.3-0.2,1.9
			s0.1,1.3,0.2,1.9c0.1,0.6,0.3,1.3,0.6,1.8c0.2,0.6,0.6,1.2,0.9,1.7c0.4,0.5,0.8,1,1.2,1.5s1,0.9,1.5,1.2c0.5,0.4,1.1,0.7,1.7,0.9
			c0.6,0.2,1.2,0.4,1.8,0.6c0.6,0.1,1.3,0.2,1.9,0.2s1.3-0.1,1.9-0.2c0.6-0.1,1.3-0.3,1.8-0.6c0.6-0.2,1.2-0.6,1.7-0.9
			c0.5-0.4,1-0.8,1.5-1.2s0.9-1,1.2-1.5c0.4-0.5,0.7-1.1,0.9-1.7c0.2-0.6,0.4-1.2,0.6-1.8c0.1-0.6,0.2-1.3,0.2-1.9
			S118.1,259.6,118,259z"/>
	</g>
</g>
</svg>
