<svg id="Layer_1" data-name="Layer 1" xmlns="http://www.w3.org/2000/svg" viewBox="0 0 600 600"><defs><style>.cls-1{fill:#2e0069;}</style></defs><title>EL1</title><path class="cls-1" d="M414,488.43a9.22,9.22,0,0,0,9.22-9.22V470h9.23a9.23,9.23,0,0,0,0-18.45h-9.23v-9.22a9.23,9.23,0,1,0-18.45,0v9.22H395.5a9.23,9.23,0,0,0,0,18.45h9.22v9.22a9.23,9.23,0,0,0,9.23,9.22Zm0,0"/><path class="cls-1" d="M525.37,102.13a9.23,9.23,0,1,0,18.45,0,9.22,9.22,0,0,0,0-18.44,9.23,9.23,0,0,0-18.45,0,9.22,9.22,0,0,0,0,18.44Zm0,0"/><path class="cls-1" d="M294.77,210.26c-71.2,0-129.13,57.92-129.13,129.12a9.23,9.23,0,1,0,18.45,0,110.69,110.69,0,0,1,221.37,0,9.22,9.22,0,1,0,18.44,0c0-71.2-57.92-129.12-129.13-129.12Zm0,0"/><path class="cls-1" d="M395.5,38.67a9.23,9.23,0,0,0,18.45,0,9.22,9.22,0,1,0,0-18.44,9.23,9.23,0,1,0-18.45,0,9.22,9.22,0,0,0,0,18.44Zm0,0"/><path class="cls-1" d="M101.07,286.61a9.23,9.23,0,0,0,9.23-9.22c0-101.72,82.75-184.48,184.47-184.48s184.48,82.76,184.48,184.48a9.23,9.23,0,0,0,18.45,0c0-111.89-91-202.92-202.93-202.92S91.85,165.5,91.85,277.39a9.22,9.22,0,0,0,9.22,9.22Zm0,0"/><path class="cls-1" d="M166.09,414.93l-8-40.09a9.22,9.22,0,0,0-18.08,0l-8,40.09-40.09,8a9.22,9.22,0,0,0,0,18.08l40.09,8,8,40.08a9.22,9.22,0,0,0,18.08,0l8-40.08,40.09-8a9.22,9.22,0,0,0,0-18.08Zm-9.65,17.24a9.21,9.21,0,0,0-7.23,7.23l-.18.9-.19-.9a9.2,9.2,0,0,0-7.23-7.23l-.89-.18.89-.19a9.17,9.17,0,0,0,7.23-7.23l.19-.89.18.89a9.19,9.19,0,0,0,7.23,7.23l.9.19Zm0,0"/><path class="cls-1" d="M562.26,175.92a9.23,9.23,0,0,0-9.22,9.23V544.88a27.71,27.71,0,0,1-27.67,27.67H304V551.33c13.45-4.71,48.47-15.67,83-15.67,80.34,0,134.9,17.79,135.45,18a9.22,9.22,0,0,0,12.13-8.75V139a9.18,9.18,0,0,0-5.59-8.47c-.82-.35-20.44-8.61-58.75-11.8a9.22,9.22,0,0,0-1.53,18.38c23.76,2,39.64,6,47.43,8.44v387c-20.91-5.48-67.32-15.41-129.14-15.41-40.19,0-79.66,13.2-91.88,17.67-10.85-4.79-43.67-17.67-83.37-17.67A621.65,621.65,0,0,0,73.4,533V146.16c8.63-2.13,25.17-5.87,46.92-9.22a9.22,9.22,0,1,0-2.79-18.23c-33.81,5.2-55,11.2-55.89,11.46A9.22,9.22,0,0,0,55,139V544.88a9.22,9.22,0,0,0,9.23,9.22,8.74,8.74,0,0,0,2.53-.36c.64-.17,64.41-18.08,145.05-18.08,33.72,0,62.54,10.49,73.79,15.21v21.68H64.18a27.7,27.7,0,0,1-27.67-27.67V185.15a9.23,9.23,0,0,0-18.45,0V544.88A46.17,46.17,0,0,0,64.18,591H525.37a46.17,46.17,0,0,0,46.12-46.12V185.15a9.23,9.23,0,0,0-9.23-9.23Zm0,0"/><path class="cls-1" d="M145.36,56.75h9.22V66A9.23,9.23,0,0,0,173,66V56.75h9.22a9.23,9.23,0,0,0,0-18.45H173V29.08a9.23,9.23,0,0,0-18.45,0V38.3h-9.22a9.23,9.23,0,1,0,0,18.45Zm0,0"/><path class="cls-1" d="M285.55,282.94V508A9.22,9.22,0,1,0,304,508v-225a9.22,9.22,0,0,0-18.44,0Zm0,0"/><path class="cls-1" d="M451.58,313.18A9.22,9.22,0,0,0,460.8,304c0-91.55-74.48-166-166-166s-166,74.48-166,166a9.22,9.22,0,1,0,18.44,0c0-81.37,66.21-147.58,147.58-147.58S442.35,222.59,442.35,304a9.23,9.23,0,0,0,9.23,9.22Zm0,0"/></svg>