<svg id="Layer_1" data-name="Layer 1" xmlns="http://www.w3.org/2000/svg" viewBox="0 0 600 600"><defs><style>.cls-1{fill:#2e0069;}</style></defs><title>EL2</title><path class="cls-1" d="M412.72,496.73h-333a34,34,0,0,1-34-34V252.42a11.33,11.33,0,1,1,22.65,0V462.74a11.34,11.34,0,0,0,11.33,11.33H412.72A11.34,11.34,0,0,0,424,462.74V41.34A11.34,11.34,0,0,0,412.72,30h-333A11.34,11.34,0,0,0,68.34,41.34V156.89a11.33,11.33,0,0,1-22.65,0V41.34a34,34,0,0,1,34-34H412.72a34,34,0,0,1,34,34v421.4A34,34,0,0,1,412.72,496.73Z"/><path class="cls-1" d="M57,218.94a11.34,11.34,0,1,1,8-3.32A11.41,11.41,0,0,1,57,218.94Z"/><path class="cls-1" d="M102.39,542.11a11.34,11.34,0,1,1,8-3.32A11.37,11.37,0,0,1,102.39,542.11Z"/><path class="cls-1" d="M458.1,542.11H147.71a11.33,11.33,0,1,1,0-22.65H458.1a11.34,11.34,0,0,0,11.33-11.33V64.07a11.33,11.33,0,1,1,22.65,0V508.13A34,34,0,0,1,458.1,542.11Z"/><path class="cls-1" d="M503.48,587.35H147.78a11.33,11.33,0,1,1,0-22.65h355.7a11.34,11.34,0,0,0,11.33-11.33V109.31a11.33,11.33,0,0,1,22.66,0V553.37A34,34,0,0,1,503.48,587.35Z"/><path class="cls-1" d="M229.2,222.59H120.45a11.33,11.33,0,0,1-11.33-11.33V102.51a11.33,11.33,0,0,1,11.33-11.33H229.2a11.33,11.33,0,0,1,11.33,11.33V211.26A11.33,11.33,0,0,1,229.2,222.59Zm-97.42-22.66h86.09V113.84H131.78Z"/><path class="cls-1" d="M146.62,331.48h0a11.29,11.29,0,0,1-8-3.32l-22-22a11.33,11.33,0,0,1,16-16l14,14L176.73,274a11.33,11.33,0,1,1,16,16l-38.12,38.12A11.32,11.32,0,0,1,146.62,331.48Z"/><path class="cls-1" d="M378.35,312.08H246.19a11.33,11.33,0,1,1,0-22.66H378.35a11.33,11.33,0,0,1,0,22.66Z"/><path class="cls-1" d="M371.94,113.84h-79.3a11.33,11.33,0,1,1,0-22.66h79.3a11.33,11.33,0,0,1,0,22.66Z"/><path class="cls-1" d="M371.94,168.21h-79.3a11.33,11.33,0,1,1,0-22.65h79.3a11.33,11.33,0,0,1,0,22.65Z"/><path class="cls-1" d="M371.94,222.59h-79.3a11.33,11.33,0,1,1,0-22.66h79.3a11.33,11.33,0,0,1,0,22.66Z"/><path class="cls-1" d="M146.62,418h0a11.29,11.29,0,0,1-8-3.32l-22-22a11.33,11.33,0,1,1,16-16l14,14,30.11-30.11a11.33,11.33,0,1,1,16,16l-38.12,38.12A11.32,11.32,0,0,1,146.62,418Z"/><path class="cls-1" d="M378.35,398.17H246.19a11.33,11.33,0,1,1,0-22.65H378.35a11.33,11.33,0,1,1,0,22.65Z"/></svg>