<svg id="Layer_1" data-name="Layer 1" xmlns="http://www.w3.org/2000/svg" viewBox="0 0 600 600"><defs><style>.cls-1{fill:#2e0069;}</style></defs><title>EL3</title><path class="cls-1" d="M360.55,383a11.39,11.39,0,0,0-4.89-.33l-.57,0A78.82,78.82,0,0,0,379,326.15V213.32A11.34,11.34,0,0,0,367.62,202H283.71A63,63,0,0,0,220.8,264.9v61.25a78.82,78.82,0,0,0,23.86,56.52l-.57,0a11.56,11.56,0,0,0-4.89.34A115.13,115.13,0,0,0,134.59,497.54v55.63a11.32,11.32,0,0,0,11.32,11.32H453.84a11.33,11.33,0,0,0,11.33-11.32V497.54A115.15,115.15,0,0,0,360.55,383ZM330,405.22,299.87,435.3l-30.08-30.08ZM243.46,264.9a40.29,40.29,0,0,1,40.24-40.25h72.59V255a27.82,27.82,0,0,1-27.78,27.78h-85V264.9Zm0,61.25V305.4h85A50.07,50.07,0,0,0,356.29,297v29.12a56.42,56.42,0,0,1-112.83,0Zm199,215.69H157.24v-32.6h92.44a11.33,11.33,0,0,0,0-22.66H157.91a92.49,92.49,0,0,1,80.53-80.67l53.42,53.42a11.32,11.32,0,0,0,16,0l53.43-53.42a92.45,92.45,0,0,1,81.2,91.63Z"/><path class="cls-1" d="M299.87,486.58a11.34,11.34,0,1,0,8,3.32A11.37,11.37,0,0,0,299.87,486.58Z"/><path class="cls-1" d="M288.69,130.24V157.9a11.33,11.33,0,0,0,22.66,0V130.24a43.05,43.05,0,1,0-22.66,0ZM300,68.32a20.39,20.39,0,1,1-20.39,20.39A20.42,20.42,0,0,1,300,68.32Z"/><path class="cls-1" d="M448.07,224.72a11.3,11.3,0,0,0,8-3.32l19.56-19.55a43.07,43.07,0,1,0-16-16l-19.57,19.56a11.33,11.33,0,0,0,8,19.34Zm34.51-74.67a20.39,20.39,0,1,1,0,28.84A20.32,20.32,0,0,1,482.58,150.05Z"/><path class="cls-1" d="M546.83,318.49A43.12,43.12,0,0,0,505.3,350.2H477.64a11.33,11.33,0,1,0,0,22.66H505.3a43,43,0,1,0,41.53-54.37Zm0,63.43a20.39,20.39,0,1,1,20.39-20.39A20.4,20.4,0,0,1,546.83,381.92Z"/><path class="cls-1" d="M434.68,372.86a11.34,11.34,0,1,0-8-3.32A11.37,11.37,0,0,0,434.68,372.86Z"/><path class="cls-1" d="M122.11,349.92H94.44a43,43,0,1,0,0,22.65h27.67a11.33,11.33,0,1,0,0-22.65ZM52.92,381.64a20.4,20.4,0,1,1,20.39-20.4A20.42,20.42,0,0,1,52.92,381.64Z"/><path class="cls-1" d="M102.06,206.42a42.76,42.76,0,0,0,21.36-5.66L143,220.31a11.33,11.33,0,1,0,16-16l-19.56-19.55a43.06,43.06,0,1,0-37.38,21.68ZM87.65,149a20.39,20.39,0,1,1,28.84,28.83h0A20.39,20.39,0,1,1,87.65,149Z"/></svg>