<svg id="Layer_1" data-name="Layer 1" xmlns="http://www.w3.org/2000/svg" xmlns:xlink="http://www.w3.org/1999/xlink" viewBox="0 0 600 600"><defs><style>.cls-1{fill:none;}.cls-2{clip-path:url(#clip-path);}.cls-3{fill:#2e0069;}</style><clipPath id="clip-path"><rect class="cls-1" x="11.24" y="12.37" width="580" height="580"/></clipPath></defs><title>EL4</title><g class="cls-2"><path class="cls-3" d="M255.74,210.32,208.93,455.76,11.24,485,275,579.71,509.87,548.1l72.41-305.78ZM209.39,542.71l-64.75-24.63,31.15-4.16,72.67,24.27Zm279-20.21L227.15,448.6l42-216.65,280.19,32.94ZM176.25,194.27H207.4v29.65H176.25Zm8.12-41.54H153.13A51.3,51.3,0,0,1,156,138.86a35.27,35.27,0,0,1,7.28-12.18A36.72,36.72,0,0,1,175.87,118c5.19-2.27,11.43-3.41,18.8-3.41s13.41,1,18.41,2.93A35.06,35.06,0,0,1,225.24,125a31.65,31.65,0,0,1,6.81,10,35.54,35.54,0,0,1,2.45,10.39,30.32,30.32,0,0,1-1.79,11.14A23.64,23.64,0,0,1,228,163.7a31.73,31.73,0,0,1-6.52,4.71c-2.34,1.24-4.81,2.44-7.35,3.77a25.82,25.82,0,0,0-4.15,2.64,12.2,12.2,0,0,0-2.57,2.85,13.68,13.68,0,0,0-1.32,3.48,32.85,32.85,0,0,0-.37,4.45H178c-.09-1.43-.09-3.31-.09-5.68a31.55,31.55,0,0,1,.87-7.25,22.5,22.5,0,0,1,3.09-7.37,19.67,19.67,0,0,1,6.62-6.05c1.23-.55,2.64-1.23,4.25-1.88A26.93,26.93,0,0,0,197.3,155a14.15,14.15,0,0,0,3.7-3,6.68,6.68,0,0,0,1.4-4.35c0-5.07-2.83-7.64-8.58-7.64-3.6,0-6.14,1.33-7.66,3.87a14.87,14.87,0,0,0-1.79,8.87ZM358.08,374.58l34.83,23.51-22.38,33.14-34.82-23.52Zm107.33-40.67a40.12,40.12,0,0,1,0,16.41,46.81,46.81,0,0,1-5.1,13.51c-3.48,5.09-6.89,8.77-10.39,11a28.43,28.43,0,0,1-10.76,4.42,36.81,36.81,0,0,1-10.85.39c-3.6-.39-7.27-.85-11-1.23a36.51,36.51,0,0,0-6.79-.2,16.64,16.64,0,0,0-5,1.24,14.72,14.72,0,0,0-4,2.92,38.33,38.33,0,0,0-3.87,4.74l-31-21c1-1.79,2.37-3.87,4.16-6.5a40.56,40.56,0,0,1,6.5-7.47,33.07,33.07,0,0,1,9.06-5.85,23.55,23.55,0,0,1,11.92-1.79c1.78.29,3.86.56,6.14,1a46,46,0,0,0,6.88.85,18.51,18.51,0,0,0,6.41-.65,8.6,8.6,0,0,0,4.9-3.7c3.89-5.75,2.66-10.75-3.86-15.1-4.06-2.74-7.83-3.19-11.51-1.41a19.37,19.37,0,0,0-8.7,8.49l-35-23.69a70.12,70.12,0,0,1,13.7-13.31A46.66,46.66,0,0,1,394.6,289a50,50,0,0,1,20.78-.2c7.45,1.33,15.37,4.84,23.59,10.39s14.26,11.24,18.41,17.19a50,50,0,0,1,8,17.57ZM32.29,389.68l-17.54-1.33,1.5-18.48,17.57,1.4Zm32.94-5.39a5,5,0,0,0-1.88-4.8,8.83,8.83,0,0,0-5.2-1.5l1.52-18.51a27.67,27.67,0,0,1,8.12,2.36A20.44,20.44,0,0,1,79.2,374.68,26.59,26.59,0,0,1,80.34,386a32.87,32.87,0,0,1-2.64,10.85,22.77,22.77,0,0,1-5,6.79,17.73,17.73,0,0,1-6.33,3.6,19.72,19.72,0,0,1-6.31.95,16.68,16.68,0,0,1-6.52-1.62,13.29,13.29,0,0,1-4-3.12A17.44,17.44,0,0,1,47,399.33c-.56-1.43-1.21-2.95-1.88-4.45a12.71,12.71,0,0,0-1.41-2.63,4.78,4.78,0,0,0-1.52-1.62,6.89,6.89,0,0,0-2-1,16.14,16.14,0,0,0-2.64-.37l1.33-16.43c.85,0,2,0,3.39.1a22.35,22.35,0,0,1,4.25.94A16.17,16.17,0,0,1,50.8,376,11.5,11.5,0,0,1,54,380.24c.26.77.65,1.61.94,2.65a22.55,22.55,0,0,0,1.21,2.73A7,7,0,0,0,57.79,388a4,4,0,0,0,2.54,1.14c3,.17,4.64-1.43,4.9-4.84ZM496.85,139.53l4.9,17-17.83,5.2-4.93-17Zm-38-14.83a31.8,31.8,0,0,1-.65-8.39,21.88,21.88,0,0,1,2.18-8.22,20.68,20.68,0,0,1,5.84-7.08,27.46,27.46,0,0,1,10.2-5.1,31.61,31.61,0,0,1,10.95-1.33,20.94,20.94,0,0,1,8.22,2.28,16.62,16.62,0,0,1,5.55,4.61,20.24,20.24,0,0,1,3.12,5.58,16.19,16.19,0,0,1,.77,6.7,11.49,11.49,0,0,1-1.52,4.81,13.8,13.8,0,0,1-2.92,3.79c-1.23,1.11-2.37,2.25-3.58,3.39a9.8,9.8,0,0,0-2,2.27,6.48,6.48,0,0,0-1,2,6.33,6.33,0,0,0-.17,2.27,14.48,14.48,0,0,0,.46,2.54l-15.85,4.64c-.29-.87-.58-2-.94-3.22a16.92,16.92,0,0,1-.75-4.44,20.63,20.63,0,0,1,.55-4.72,10.34,10.34,0,0,1,2.83-4.44c.58-.56,1.33-1.21,2.08-1.89s1.52-1.3,2.27-2.08a7.38,7.38,0,0,0,1.5-2.34,3.8,3.8,0,0,0,.19-2.75c-.84-2.93-2.92-3.87-6.23-2.93-2.08.68-3.29,1.79-3.77,3.51a8.85,8.85,0,0,0,.48,5.36Zm-99.3,54.66,10.76,1.14-1,10.2-10.76-1Zm4.25-14.06-10.85-1a20.18,20.18,0,0,1,1.41-4.72,12,12,0,0,1,3-4,12.34,12.34,0,0,1,4.64-2.56,16.77,16.77,0,0,1,6.69-.56,19.76,19.76,0,0,1,6.14,1.6,12,12,0,0,1,4,3,11.45,11.45,0,0,1,2.08,3.67,17.54,17.54,0,0,1,.46,3.7,9,9,0,0,1-1,3.77,5.86,5.86,0,0,1-1.88,2.37,11.67,11.67,0,0,1-2.35,1.4c-.94.29-1.81.68-2.75,1a12.17,12.17,0,0,0-1.5.77,4.63,4.63,0,0,0-1,.95,2.86,2.86,0,0,0-.48,1.11,4.41,4.41,0,0,0-.27,1.52l-9.55-.85a14.3,14.3,0,0,1,.1-2,14,14,0,0,1,.56-2.56,9.09,9.09,0,0,1,1.33-2.44,6.19,6.19,0,0,1,2.46-1.89,8.7,8.7,0,0,0,1.5-.48,11.19,11.19,0,0,0,1.72-.65,5.12,5.12,0,0,0,1.3-.94,2,2,0,0,0,.75-1.43c.1-1.79-.75-2.73-2.83-2.92a2.57,2.57,0,0,0-2.73,1,4.28,4.28,0,0,0-.85,3ZM302.74,397.51a12.58,12.58,0,0,1,.58,3.6,9.62,9.62,0,0,1-1,3.87,6.7,6.7,0,0,1-1.88,2.27,11.36,11.36,0,0,1-2.37,1.4c-.94.39-1.79.68-2.73,1a12.55,12.55,0,0,0-1.52.85,4.81,4.81,0,0,0-.95.87,3,3,0,0,0-.55,1.21,5.59,5.59,0,0,0-.39,1.52l-9.52-.94a17.91,17.91,0,0,1,.19-2,9.54,9.54,0,0,1,1.89-5,5.94,5.94,0,0,1,2.44-1.81c.48-.17.94-.36,1.52-.55s1.14-.39,1.69-.56a4.75,4.75,0,0,0,1.33-1,2.36,2.36,0,0,0,.65-1.43c.2-1.69-.75-2.73-2.73-2.92a3,3,0,0,0-2.82,1.14,5.26,5.26,0,0,0-.87,3l-10.85-1.14a15.74,15.74,0,0,1,1.42-4.61,12.05,12.05,0,0,1,3-4.06,11.63,11.63,0,0,1,4.62-2.57,16.38,16.38,0,0,1,6.62-.55,16.89,16.89,0,0,1,6.21,1.69,11.94,11.94,0,0,1,4,2.92,11.49,11.49,0,0,1,2.05,3.77Zm-21.31,18.61,10.75,1.14-.94,10.2-10.85-1ZM77.15,88.25l-10.88-1A17.62,17.62,0,0,1,67.7,82.5a13.43,13.43,0,0,1,2.92-4,11.93,11.93,0,0,1,4.71-2.64A16.06,16.06,0,0,1,82,75.42,16.64,16.64,0,0,1,88.29,77a11.55,11.55,0,0,1,3.86,3,10.07,10.07,0,0,1,2.08,3.67,18.77,18.77,0,0,1,.46,3.68,10.07,10.07,0,0,1-1,3.86,8.21,8.21,0,0,1-1.88,2.28,7,7,0,0,1-2.37,1.32c-.94.39-1.79.75-2.64,1.14a7.21,7.21,0,0,0-1.59.75,2.72,2.72,0,0,0-.94.94,2.07,2.07,0,0,0-.58,1.14c-.1.46-.2.94-.29,1.5l-9.62-1c.09-.46.09-1.11.19-2A12.84,12.84,0,0,1,74.49,95a8.8,8.8,0,0,1,1.33-2.46,7.36,7.36,0,0,1,2.44-1.89c.48-.1.94-.29,1.52-.46a11.42,11.42,0,0,0,1.69-.67,6.36,6.36,0,0,0,1.43-.95,1.92,1.92,0,0,0,.55-1.4c.2-1.81-.65-2.75-2.73-3A2.78,2.78,0,0,0,78,85.23a5.37,5.37,0,0,0-.84,3Zm-4.26,14.07,10.76,1.13-1,10.2-10.76-1ZM99.5,306.53l-26.9,7.73-7.37-25.59,26.92-7.74ZM34.85,258.46a47,47,0,0,1-1-12.64,32.59,32.59,0,0,1,3.28-12.37,33.3,33.3,0,0,1,8.8-10.76c3.87-3.21,9.06-5.75,15.37-7.63a45,45,0,0,1,16.72-2,31.79,31.79,0,0,1,12.28,3.39,26.57,26.57,0,0,1,8.29,7,33.08,33.08,0,0,1,4.81,8.41A27.32,27.32,0,0,1,104.6,242a20.71,20.71,0,0,1-2.34,7.37A26.26,26.26,0,0,1,97.81,255c-1.79,1.69-3.58,3.41-5.39,5.1a23.27,23.27,0,0,0-2.92,3.38,9.7,9.7,0,0,0-1.5,3.12,9.15,9.15,0,0,0-.29,3.31,19,19,0,0,0,.84,4l-24,6.79c-.46-1.2-.94-2.82-1.5-4.81a23.48,23.48,0,0,1-1-6.59,20.47,20.47,0,0,1,.85-7.08,16.23,16.23,0,0,1,4.23-6.79c.87-.87,1.91-1.82,3.11-2.86a20.53,20.53,0,0,0,3.32-3.11A10.3,10.3,0,0,0,76,245.82a5.94,5.94,0,0,0,.27-4.06c-1.31-4.35-4.43-5.85-9.43-4.45-3.12.87-5,2.66-5.68,5.3a13.24,13.24,0,0,0,.68,8ZM326.06,80.33l7.37,25.59-26.8,7.73-7.46-25.57ZM268.76,58a48.32,48.32,0,0,1-.94-12.76,32.14,32.14,0,0,1,3.31-12.37,34.55,34.55,0,0,1,8.77-10.76c3.87-3.21,9.07-5.65,15.4-7.54a46.84,46.84,0,0,1,16.6-2.07A33.65,33.65,0,0,1,324.27,16a25.12,25.12,0,0,1,8.32,7,32.34,32.34,0,0,1,4.81,8.41,25.06,25.06,0,0,1,1.13,10.1,18,18,0,0,1-2.27,7.28,21.63,21.63,0,0,1-4.42,5.65c-1.81,1.69-3.6,3.41-5.39,5.2a17.83,17.83,0,0,0-2.92,3.4,9.92,9.92,0,0,0-1.53,3.1,9.34,9.34,0,0,0-.26,3.21,20.83,20.83,0,0,0,.75,4l-23.88,6.91c-.48-1.24-.94-3-1.52-4.93a27.53,27.53,0,0,1-1.14-6.5,26.45,26.45,0,0,1,.94-7.08,15.49,15.49,0,0,1,4.26-6.89C302,54,303,53,304.26,52a35.36,35.36,0,0,0,3.41-3.09,14.68,14.68,0,0,0,2.35-3.6,5.91,5.91,0,0,0,.29-4.06c-1.33-4.42-4.45-5.85-9.45-4.52-3.12.94-5,2.73-5.66,5.27a14.38,14.38,0,0,0,.65,8.12ZM159.65,358.53l-20.59-3.86a35,35,0,0,1,3.6-8.78,25.27,25.27,0,0,1,6.31-7.17,26.2,26.2,0,0,1,9.45-4.16,30.36,30.36,0,0,1,12.73.1,32.5,32.5,0,0,1,11.8,4.15,26.19,26.19,0,0,1,7.08,6.41,19.83,19.83,0,0,1,3.21,7.56,22.2,22.2,0,0,1,.39,7.08,20.94,20.94,0,0,1-2.56,7.18A14.79,14.79,0,0,1,187,371.1a15.41,15.41,0,0,1-4.81,2.25c-1.79.58-3.48,1.13-5.29,1.62a16.25,16.25,0,0,0-3.1,1.3,6.63,6.63,0,0,0-2.08,1.52,10.19,10.19,0,0,0-1.23,2.08,16.18,16.18,0,0,0-.75,2.93l-18.22-3.51c.1-.94.27-2.15.56-3.67a24.65,24.65,0,0,1,1.52-4.81,17.75,17.75,0,0,1,2.92-4.45,14.07,14.07,0,0,1,5.1-3.11c1-.27,1.89-.37,3-.66s2.18-.65,3.29-1a10.9,10.9,0,0,0,2.85-1.49,5,5,0,0,0,1.5-2.76c.58-3.29-.94-5.36-4.81-6-2.37-.46-4.25.1-5.48,1.62a10.16,10.16,0,0,0-2.35,5.65ZM149.26,385l20.49,3.77-3.69,19.55-20.47-3.89Zm0,0"/></g></svg>